<svg width="1512" height="558" viewBox="0 0 1512 558" fill="none" xmlns="http://www.w3.org/2000/svg">
<path d="M451 81.218C450.744 81.218 450.488 81.12 450.293 80.925C449.902 80.534 449.902 79.902 450.293 79.511L504.388 25.416H675.169L722.248 72.494H807.501C808.053 72.494 808.501 72.942 808.501 73.494C808.501 74.046 808.053 74.494 807.501 74.494H721.419L674.34 27.416H505.216L451.707 80.925C451.512 81.121 451.256 81.218 451 81.218Z" fill="#FFDD7E" fill-opacity="0.17"/>
<path d="M814.667 80.718C810.761 80.718 807.584 77.541 807.584 73.635C807.584 69.729 810.761 66.552 814.667 66.552C818.573 66.552 821.75 69.729 821.75 73.635C821.75 77.541 818.573 80.718 814.667 80.718ZM814.667 67.552C811.313 67.552 808.584 70.281 808.584 73.635C808.584 76.989 811.313 79.718 814.667 79.718C818.021 79.718 820.75 76.989 820.75 73.635C820.75 70.281 818.021 67.552 814.667 67.552Z" fill="#FFDD7E" fill-opacity="0.17"/>
<path d="M814.667 78.247C817.214 78.247 819.279 76.1821 819.279 73.635C819.279 71.0879 817.214 69.023 814.667 69.023C812.12 69.023 810.055 71.0879 810.055 73.635C810.055 76.1821 812.12 78.247 814.667 78.247Z" fill="#FFDD7E" fill-opacity="0.17"/>
<path d="M677.875 26.417C677.875 28.304 676.345 29.834 674.458 29.834C672.571 29.834 671.041 28.304 671.041 26.417C671.041 24.53 672.571 23 674.458 23C676.345 23 677.875 24.53 677.875 26.417Z" fill="#FFDD7E" fill-opacity="0.17"/>
<path d="M762.581 80.6263H683.834C683.282 80.6263 682.834 80.1783 682.834 79.6263C682.834 79.0742 683.282 78.6263 683.834 78.6263H761.753L806.419 33.9593H977.086L1010.75 0.29325C1011.14 -0.09775 1011.77 -0.09775 1012.17 0.29325C1012.56 0.68425 1012.56 1.31625 1012.17 1.70725L977.914 35.9583H807.247L762.581 80.6263Z" fill="#FFDD7E" fill-opacity="0.17"/>
<path d="M731.333 98.1263H657.626L617.043 57.5433H519.5C519.224 57.5433 519 57.3193 519 57.0433C519 56.7673 519.224 56.5433 519.5 56.5433H617.457L658.04 97.1263H731.333C731.609 97.1263 731.833 97.3503 731.833 97.6263C731.833 97.9023 731.609 98.1263 731.333 98.1263Z" fill="#FFDD7E" fill-opacity="0.17"/>
<path d="M754.75 104.709C750.844 104.709 747.667 101.532 747.667 97.6262C747.667 93.7202 750.844 90.5432 754.75 90.5432C758.656 90.5432 761.833 93.7202 761.833 97.6262C761.833 101.532 758.656 104.709 754.75 104.709ZM754.75 91.5432C751.396 91.5432 748.667 94.2722 748.667 97.6262C748.667 100.98 751.396 103.709 754.75 103.709C758.104 103.709 760.833 100.98 760.833 97.6262C760.833 94.2722 758.104 91.5432 754.75 91.5432Z" fill="#FFDD7E" fill-opacity="0.17"/>
<path d="M754.75 102.238C757.297 102.238 759.362 100.173 759.362 97.6262C759.362 95.0791 757.297 93.0142 754.75 93.0142C752.203 93.0142 750.138 95.0791 750.138 97.6262C750.138 100.173 752.203 102.238 754.75 102.238Z" fill="#FFDD7E" fill-opacity="0.17"/>
<path d="M678.677 84.6012C675.934 84.6012 673.702 82.3692 673.702 79.6262C673.702 76.8832 675.934 74.6512 678.677 74.6512C681.42 74.6512 683.652 76.8832 683.652 79.6262C683.652 82.3692 681.42 84.6012 678.677 84.6012ZM678.677 75.6512C676.485 75.6512 674.702 77.4342 674.702 79.6262C674.702 81.8182 676.485 83.6012 678.677 83.6012C680.869 83.6012 682.652 81.8182 682.652 79.6262C682.652 77.4342 680.869 75.6512 678.677 75.6512Z" fill="#FFDD7E" fill-opacity="0.17"/>
<path d="M681.813 79.6262C681.813 81.3572 680.409 82.7612 678.678 82.7612C676.947 82.7612 675.543 81.3572 675.543 79.6262C675.543 77.8952 676.947 76.4912 678.678 76.4912C680.409 76.4912 681.813 77.8952 681.813 79.6262Z" fill="#FFDD7E" fill-opacity="0.17"/>
<path d="M734.25 101.459C736.367 101.459 738.083 99.7431 738.083 97.6262C738.083 95.5093 736.367 93.7932 734.25 93.7932C732.133 93.7932 730.417 95.5093 730.417 97.6262C730.417 99.7431 732.133 101.459 734.25 101.459Z" fill="#FFDD7E" fill-opacity="0.17"/>
<path d="M1062.17 57.5433H748.167C747.891 57.5433 747.667 57.3193 747.667 57.0433C747.667 56.7673 747.891 56.5433 748.167 56.5433H1062.17C1062.44 56.5433 1062.67 56.7673 1062.67 57.0433C1062.67 57.3193 1062.44 57.5433 1062.17 57.5433Z" fill="#FFDD7E" fill-opacity="0.17"/>
<path d="M745.333 60.8763C747.45 60.8763 749.166 59.1602 749.166 57.0433C749.166 54.9263 747.45 53.2103 745.333 53.2103C743.216 53.2103 741.5 54.9263 741.5 57.0433C741.5 59.1602 743.216 60.8763 745.333 60.8763Z" fill="#FFDD7E" fill-opacity="0.17"/>
<path d="M1062.17 60.8773C1064.28 60.8773 1066 59.1607 1066 57.0433C1066 54.9258 1064.28 53.2093 1062.17 53.2093C1060.05 53.2093 1058.33 54.9258 1058.33 57.0433C1058.33 59.1607 1060.05 60.8773 1062.17 60.8773Z" fill="#FFDD7E" fill-opacity="0.17"/>
<path d="M341.375 517.255H93.834C93.558 517.255 93.334 517.031 93.334 516.755C93.334 516.479 93.558 516.255 93.834 516.255H340.96L411.672 445.545H502.808L555.374 498.111H610.293L745.43 362.975C745.625 362.78 745.942 362.78 746.137 362.975C746.332 363.17 746.332 363.487 746.137 363.682L610.707 499.111H554.96L502.394 446.545H412.086L341.375 517.255Z" fill="url(#paint0_linear_7543_28970)"/>
<path d="M258.04 495.879H198C197.724 495.879 197.5 495.655 197.5 495.379C197.5 495.103 197.724 494.879 198 494.879H257.626L320.626 431.879H427.373L470.873 475.379H574.96L689.896 360.442C690.091 360.247 690.408 360.247 690.603 360.442C690.798 360.637 690.798 360.954 690.603 361.149L575.374 476.379H470.46L426.96 432.879H321.04L258.04 495.879Z" fill="url(#paint1_linear_7543_28970)"/>
<path d="M165.501 495.879H111.293L58.376 442.962H-7.5C-7.776 442.962 -8 442.738 -8 442.462C-8 442.186 -7.776 441.962 -7.5 441.962H58.79L111.707 494.879H165.501C165.777 494.879 166.001 495.103 166.001 495.379C166.001 495.655 165.777 495.879 165.501 495.879Z" fill="url(#paint2_linear_7543_28970)"/>
<path d="M94.387 517.165C94.259 517.165 94.131 517.116 94.033 517.019L47.701 470.686H-7.5C-7.776 470.686 -8 470.462 -8 470.186C-8 469.91 -7.776 469.686 -7.5 469.686H48.115L94.74 516.311C94.935 516.506 94.935 516.823 94.74 517.018C94.643 517.116 94.515 517.165 94.387 517.165Z" fill="url(#paint3_linear_7543_28970)"/>
<path d="M647.695 534.545H577.75C577.197 534.545 576.75 534.097 576.75 533.545C576.75 532.993 577.197 532.545 577.75 532.545H646.867L705.892 473.519H736.605C737.158 473.519 737.605 473.967 737.605 474.519C737.605 475.071 737.158 475.519 736.605 475.519H706.72L647.695 534.545Z" fill="url(#paint4_linear_7543_28970)"/>
<path d="M577.039 541.585C573.134 541.585 569.956 538.408 569.956 534.502C569.956 530.596 573.134 527.419 577.039 527.419C580.944 527.419 584.122 530.596 584.122 534.502C584.122 538.408 580.944 541.585 577.039 541.585ZM577.039 528.419C573.685 528.419 570.956 531.148 570.956 534.502C570.956 537.856 573.685 540.585 577.039 540.585C580.393 540.585 583.122 537.856 583.122 534.502C583.122 531.148 580.393 528.419 577.039 528.419Z" fill="url(#paint5_linear_7543_28970)"/>
<path d="M577.039 539.114C579.586 539.114 581.651 537.049 581.651 534.502C581.651 531.955 579.586 529.89 577.039 529.89C574.492 529.89 572.427 531.955 572.427 534.502C572.427 537.049 574.492 539.114 577.039 539.114Z" fill="url(#paint6_linear_7543_28970)"/>
<path d="M440.584 453.708C436.679 453.708 433.501 450.531 433.501 446.625C433.501 442.719 436.679 439.542 440.584 439.542C444.489 439.542 447.667 442.719 447.667 446.625C447.667 450.531 444.489 453.708 440.584 453.708ZM440.584 440.542C437.229 440.542 434.501 443.271 434.501 446.625C434.501 449.979 437.229 452.708 440.584 452.708C443.938 452.708 446.667 449.979 446.667 446.625C446.667 443.271 443.939 440.542 440.584 440.542Z" fill="url(#paint7_linear_7543_28970)"/>
<path d="M440.584 451.237C443.131 451.237 445.196 449.172 445.196 446.625C445.196 444.078 443.131 442.013 440.584 442.013C438.037 442.013 435.972 444.078 435.972 446.625C435.972 449.172 438.037 451.237 440.584 451.237Z" fill="url(#paint8_linear_7543_28970)"/>
<path d="M58.583 447.437C55.84 447.437 53.608 445.205 53.608 442.462C53.608 439.719 55.84 437.487 58.583 437.487C61.326 437.487 63.558 439.719 63.558 442.462C63.558 445.205 61.326 447.437 58.583 447.437ZM58.583 438.487C56.391 438.487 54.608 440.27 54.608 442.462C54.608 444.654 56.391 446.437 58.583 446.437C60.775 446.437 62.558 444.654 62.558 442.462C62.558 440.27 60.775 438.487 58.583 438.487Z" fill="url(#paint9_linear_7543_28970)"/>
<path d="M61.718 442.462C61.718 444.193 60.314 445.597 58.583 445.597C56.852 445.597 55.448 444.193 55.448 442.462C55.448 440.731 56.852 439.327 58.583 439.327C60.314 439.327 61.718 440.731 61.718 442.462Z" fill="url(#paint10_linear_7543_28970)"/>
<path d="M299.167 459.628C302.25 459.628 304.75 457.129 304.75 454.045C304.75 450.962 302.25 448.462 299.167 448.462C296.084 448.462 293.584 450.962 293.584 454.045C293.584 457.129 296.084 459.628 299.167 459.628Z" fill="url(#paint11_linear_7543_28970)"/>
<path d="M737.112 474.886C737.252 471.805 734.868 469.195 731.788 469.055C728.708 468.916 726.097 471.299 725.958 474.38C725.818 477.46 728.202 480.07 731.282 480.21C734.362 480.35 736.973 477.966 737.112 474.886Z" fill="url(#paint12_linear_7543_28970)"/>
<path d="M532.543 481.57C535.626 481.57 538.126 479.071 538.126 475.987C538.126 472.904 535.626 470.404 532.543 470.404C529.46 470.404 526.96 472.904 526.96 475.987C526.96 479.071 529.46 481.57 532.543 481.57Z" fill="url(#paint13_linear_7543_28970)"/>
<path d="M595.875 477.076C595.875 479.25 594.113 481.012 591.94 481.012C589.766 481.012 588.004 479.25 588.004 477.076C588.004 474.902 589.766 473.14 591.94 473.14C594.113 473.14 595.875 474.902 595.875 477.076Z" fill="url(#paint14_linear_7543_28970)"/>
<path d="M609.938 484.091C609.938 486.391 608.072 488.256 605.773 488.256C603.474 488.256 601.608 486.391 601.608 484.091C601.608 481.791 603.474 479.926 605.773 479.926C608.071 479.926 609.938 481.791 609.938 484.091Z" fill="url(#paint15_linear_7543_28970)"/>
<path d="M344.5 516.755C344.5 518.642 342.97 520.172 341.083 520.172C339.196 520.172 337.666 518.642 337.666 516.755C337.666 514.868 339.196 513.338 341.083 513.338C342.97 513.339 344.5 514.869 344.5 516.755Z" fill="url(#paint16_linear_7543_28970)"/>
<path d="M365.197 500.34C361.015 500.34 357.612 496.938 357.612 492.756C357.612 488.574 361.014 485.172 365.197 485.172C369.379 485.172 372.781 488.574 372.781 492.756C372.782 496.938 369.379 500.34 365.197 500.34ZM365.197 486.171C361.566 486.171 358.612 489.125 358.612 492.755C358.612 496.386 361.566 499.339 365.197 499.339C368.828 499.339 371.781 496.385 371.781 492.755C371.782 489.125 368.828 486.171 365.197 486.171Z" fill="url(#paint17_linear_7543_28970)"/>
<path d="M370.094 492.755C370.094 495.459 367.901 497.651 365.197 497.651C362.493 497.651 360.301 495.458 360.301 492.755C360.301 490.051 362.494 487.859 365.197 487.859C367.9 487.859 370.094 490.052 370.094 492.755Z" fill="url(#paint18_linear_7543_28970)"/>
<path d="M198 500.962C201.083 500.962 203.583 498.463 203.583 495.379C203.583 492.296 201.083 489.796 198 489.796C194.917 489.796 192.417 492.296 192.417 495.379C192.417 498.463 194.917 500.962 198 500.962Z" fill="url(#paint19_linear_7543_28970)"/>
<path d="M165.501 500.962C168.584 500.962 171.084 498.463 171.084 495.379C171.084 492.296 168.584 489.796 165.501 489.796C162.418 489.796 159.918 492.296 159.918 495.379C159.918 498.463 162.418 500.962 165.501 500.962Z" fill="url(#paint20_linear_7543_28970)"/>
<path d="M94.387 522.248C97.4704 522.248 99.97 519.749 99.97 516.665C99.97 513.582 97.4704 511.082 94.387 511.082C91.3036 511.082 88.804 513.582 88.804 516.665C88.804 519.749 91.3036 522.248 94.387 522.248Z" fill="url(#paint21_linear_7543_28970)"/>
<path d="M52.781 470.186C52.781 473.269 50.281 475.769 47.198 475.769C44.115 475.769 41.615 473.269 41.615 470.186C41.615 467.103 44.115 464.603 47.198 464.603C50.281 464.603 52.781 467.103 52.781 470.186Z" fill="url(#paint22_linear_7543_28970)"/>
<path d="M280.75 474.716C281.947 474.716 282.917 473.746 282.917 472.549C282.917 471.352 281.947 470.382 280.75 470.382C279.553 470.382 278.583 471.352 278.583 472.549C278.583 473.746 279.553 474.716 280.75 474.716Z" fill="url(#paint23_linear_7543_28970)"/>
<path d="M592.756 476.487C592.628 476.487 592.5 476.438 592.402 476.341C592.207 476.146 592.207 475.829 592.402 475.634L708.89 359.146C709.085 358.951 709.402 358.951 709.597 359.146C709.792 359.341 709.792 359.658 709.597 359.853L593.109 476.34C593.012 476.438 592.884 476.487 592.756 476.487Z" fill="url(#paint24_linear_7543_28970)"/>
<path d="M607.24 482.972C607.112 482.972 606.984 482.923 606.887 482.826C606.692 482.631 606.692 482.314 606.887 482.119L723.374 365.63C723.569 365.435 723.886 365.435 724.081 365.63C724.276 365.825 724.276 366.142 724.081 366.337L607.594 482.825C607.496 482.923 607.368 482.972 607.24 482.972Z" fill="url(#paint25_linear_7543_28970)"/>
<g opacity="0.5">
<path d="M1518.28 443.588H1300.96L1244.74 387.37H1120.24L1060.74 327.87H977.45C977.174 327.87 976.95 327.646 976.95 327.37C976.95 327.094 977.174 326.87 977.45 326.87H1061.16L1120.66 386.37H1245.16L1301.38 442.588H1518.28C1518.56 442.588 1518.78 442.812 1518.78 443.088C1518.78 443.364 1518.56 443.588 1518.28 443.588Z" fill="url(#paint26_linear_7543_28970)"/>
<path d="M1519.78 522.556H1330.74L1187.54 379.356H1092.89L1032.54 319H859.45C858.898 319 858.45 318.552 858.45 318C858.45 317.448 858.898 317 859.45 317H1033.36L1093.72 377.356H1188.36L1331.56 520.556H1519.78C1520.34 520.556 1520.78 521.003 1520.78 521.556C1520.78 522.108 1520.34 522.556 1519.78 522.556Z" fill="url(#paint27_linear_7543_28970)"/>
<path d="M1331.23 493.668H1172.24L1058.07 379.496H897.45C897.174 379.496 896.95 379.272 896.95 378.996C896.95 378.72 897.174 378.496 897.45 378.496H1058.49L1172.66 492.668H1330.82L1441.8 381.688H1544.16C1544.44 381.688 1544.66 381.912 1544.66 382.188C1544.66 382.464 1544.44 382.688 1544.16 382.688H1442.21L1331.23 493.668Z" fill="url(#paint28_linear_7543_28970)"/>
<path d="M1358.66 550.971H1285.27L1163.62 429.318H1010.43L974.242 393.131H824.45C824.174 393.131 823.95 392.907 823.95 392.631C823.95 392.355 824.174 392.131 824.45 392.131H974.657L1010.84 428.318H1164.03L1285.68 549.97H1358.24L1434.23 473.983H1519.78C1520.06 473.983 1520.28 474.207 1520.28 474.483C1520.28 474.759 1520.06 474.983 1519.78 474.983H1434.64L1358.66 550.971Z" fill="url(#paint29_linear_7543_28970)"/>
<path d="M1358.45 557.554C1354.55 557.554 1351.37 554.376 1351.37 550.471C1351.37 546.566 1354.55 543.388 1358.45 543.388C1362.36 543.388 1365.53 546.566 1365.53 550.471C1365.53 554.376 1362.36 557.554 1358.45 557.554ZM1358.45 544.388C1355.1 544.388 1352.37 547.116 1352.37 550.471C1352.37 553.825 1355.1 556.554 1358.45 556.554C1361.8 556.554 1364.53 553.826 1364.53 550.471C1364.53 547.116 1361.8 544.388 1358.45 544.388Z" fill="url(#paint30_linear_7543_28970)"/>
<path d="M1358.45 555.083C1361 555.083 1363.06 553.018 1363.06 550.471C1363.06 547.924 1361 545.859 1358.45 545.859C1355.9 545.859 1353.84 547.924 1353.84 550.471C1353.84 553.018 1355.9 555.083 1358.45 555.083Z" fill="url(#paint31_linear_7543_28970)"/>
<path d="M1244.08 393.166C1240.18 393.166 1237 389.989 1237 386.083C1237 382.177 1240.18 379 1244.08 379C1247.99 379 1251.17 382.177 1251.17 386.083C1251.17 389.989 1247.99 393.166 1244.08 393.166ZM1244.08 380C1240.73 380 1238 382.729 1238 386.083C1238 389.437 1240.73 392.166 1244.08 392.166C1247.44 392.166 1250.17 389.437 1250.17 386.083C1250.17 382.729 1247.44 380 1244.08 380Z" fill="url(#paint32_linear_7543_28970)"/>
<path d="M1244.08 390.695C1246.63 390.695 1248.7 388.63 1248.7 386.083C1248.7 383.536 1246.63 381.471 1244.08 381.471C1241.54 381.471 1239.47 383.536 1239.47 386.083C1239.47 388.63 1241.54 390.695 1244.08 390.695Z" fill="url(#paint33_linear_7543_28970)"/>
<path d="M1549.22 382.612C1549.22 385.159 1547.16 387.224 1544.61 387.224C1542.07 387.224 1540 385.159 1540 382.612C1540 380.065 1542.07 378 1544.61 378C1547.16 378 1549.22 380.065 1549.22 382.612Z" fill="url(#paint34_linear_7543_28970)"/>
<path d="M1443.61 389.224C1446.16 389.224 1448.22 387.159 1448.22 384.612C1448.22 382.065 1446.16 380 1443.61 380C1441.06 380 1439 382.065 1439 384.612C1439 387.159 1441.06 389.224 1443.61 389.224Z" fill="url(#paint35_linear_7543_28970)"/>
<path d="M819.975 397.607C817.232 397.607 815 395.375 815 392.632C815 389.889 817.232 387.657 819.975 387.657C822.718 387.657 824.95 389.889 824.95 392.632C824.95 395.375 822.718 397.607 819.975 397.607ZM819.975 388.657C817.783 388.657 816 390.44 816 392.632C816 394.824 817.783 396.607 819.975 396.607C822.167 396.607 823.95 394.824 823.95 392.632C823.95 390.44 822.167 388.657 819.975 388.657Z" fill="url(#paint36_linear_7543_28970)"/>
<path d="M823.11 392.632C823.11 394.364 821.706 395.767 819.975 395.767C818.244 395.767 816.84 394.363 816.84 392.632C816.84 390.901 818.244 389.497 819.975 389.497C821.706 389.497 823.11 390.9 823.11 392.632Z" fill="url(#paint37_linear_7543_28970)"/>
<path d="M1386.17 443.583C1386.17 446.666 1383.67 449.166 1380.58 449.166C1377.5 449.166 1375 446.666 1375 443.583C1375 440.5 1377.5 438 1380.58 438C1383.67 438 1386.17 440.5 1386.17 443.583Z" fill="url(#paint38_linear_7543_28970)"/>
<path d="M1390.76 521.556C1390.76 523.575 1389.13 525.211 1387.11 525.211C1385.09 525.211 1383.45 523.574 1383.45 521.556C1383.45 519.536 1385.09 517.899 1387.11 517.899C1389.13 517.899 1390.76 519.537 1390.76 521.556Z" fill="url(#paint39_linear_7543_28970)"/>
<path d="M1231.76 493.169C1231.76 495.187 1230.13 496.824 1228.11 496.824C1226.09 496.824 1224.45 495.187 1224.45 493.169C1224.45 491.149 1226.09 489.512 1228.11 489.512C1230.13 489.512 1231.76 491.149 1231.76 493.169Z" fill="url(#paint40_linear_7543_28970)"/>
<path d="M1108.45 436.203C1112.5 436.203 1115.78 432.92 1115.78 428.87C1115.78 424.82 1112.5 421.537 1108.45 421.537C1104.4 421.537 1101.12 424.82 1101.12 428.87C1101.12 432.92 1104.4 436.203 1108.45 436.203Z" fill="url(#paint41_linear_7543_28970)"/>
<path d="M1302.59 500.501C1306.64 500.501 1309.92 497.218 1309.92 493.168C1309.92 489.118 1306.64 485.835 1302.59 485.835C1298.54 485.835 1295.26 489.118 1295.26 493.168C1295.26 497.218 1298.54 500.501 1302.59 500.501Z" fill="url(#paint42_linear_7543_28970)"/>
</g>
<defs>
<linearGradient id="paint0_linear_7543_28970" x1="-8" y1="450.292" x2="734.5" y2="384.5" gradientUnits="userSpaceOnUse">
<stop stop-color="#FFDD7E" stop-opacity="0.57"/>
<stop offset="1" stop-color="#FFDD7E" stop-opacity="0"/>
</linearGradient>
<linearGradient id="paint1_linear_7543_28970" x1="-8" y1="450.292" x2="734.5" y2="384.5" gradientUnits="userSpaceOnUse">
<stop stop-color="#FFDD7E" stop-opacity="0.57"/>
<stop offset="1" stop-color="#FFDD7E" stop-opacity="0"/>
</linearGradient>
<linearGradient id="paint2_linear_7543_28970" x1="-8" y1="450.292" x2="734.5" y2="384.5" gradientUnits="userSpaceOnUse">
<stop stop-color="#FFDD7E" stop-opacity="0.57"/>
<stop offset="1" stop-color="#FFDD7E" stop-opacity="0"/>
</linearGradient>
<linearGradient id="paint3_linear_7543_28970" x1="-8" y1="450.292" x2="734.5" y2="384.5" gradientUnits="userSpaceOnUse">
<stop stop-color="#FFDD7E" stop-opacity="0.57"/>
<stop offset="1" stop-color="#FFDD7E" stop-opacity="0"/>
</linearGradient>
<linearGradient id="paint4_linear_7543_28970" x1="-8" y1="450.292" x2="734.5" y2="384.5" gradientUnits="userSpaceOnUse">
<stop stop-color="#FFDD7E" stop-opacity="0.57"/>
<stop offset="1" stop-color="#FFDD7E" stop-opacity="0"/>
</linearGradient>
<linearGradient id="paint5_linear_7543_28970" x1="-8" y1="450.292" x2="734.5" y2="384.5" gradientUnits="userSpaceOnUse">
<stop stop-color="#FFDD7E" stop-opacity="0.57"/>
<stop offset="1" stop-color="#FFDD7E" stop-opacity="0"/>
</linearGradient>
<linearGradient id="paint6_linear_7543_28970" x1="-8" y1="450.292" x2="734.5" y2="384.5" gradientUnits="userSpaceOnUse">
<stop stop-color="#FFDD7E" stop-opacity="0.57"/>
<stop offset="1" stop-color="#FFDD7E" stop-opacity="0"/>
</linearGradient>
<linearGradient id="paint7_linear_7543_28970" x1="-8" y1="450.292" x2="734.5" y2="384.5" gradientUnits="userSpaceOnUse">
<stop stop-color="#FFDD7E" stop-opacity="0.57"/>
<stop offset="1" stop-color="#FFDD7E" stop-opacity="0"/>
</linearGradient>
<linearGradient id="paint8_linear_7543_28970" x1="-8" y1="450.292" x2="734.5" y2="384.5" gradientUnits="userSpaceOnUse">
<stop stop-color="#FFDD7E" stop-opacity="0.57"/>
<stop offset="1" stop-color="#FFDD7E" stop-opacity="0"/>
</linearGradient>
<linearGradient id="paint9_linear_7543_28970" x1="-8" y1="450.292" x2="734.5" y2="384.5" gradientUnits="userSpaceOnUse">
<stop stop-color="#FFDD7E" stop-opacity="0.57"/>
<stop offset="1" stop-color="#FFDD7E" stop-opacity="0"/>
</linearGradient>
<linearGradient id="paint10_linear_7543_28970" x1="-8" y1="450.292" x2="734.5" y2="384.5" gradientUnits="userSpaceOnUse">
<stop stop-color="#FFDD7E" stop-opacity="0.57"/>
<stop offset="1" stop-color="#FFDD7E" stop-opacity="0"/>
</linearGradient>
<linearGradient id="paint11_linear_7543_28970" x1="-8" y1="450.292" x2="734.5" y2="384.5" gradientUnits="userSpaceOnUse">
<stop stop-color="#FFDD7E" stop-opacity="0.57"/>
<stop offset="1" stop-color="#FFDD7E" stop-opacity="0"/>
</linearGradient>
<linearGradient id="paint12_linear_7543_28970" x1="-8" y1="450.292" x2="734.5" y2="384.5" gradientUnits="userSpaceOnUse">
<stop stop-color="#FFDD7E" stop-opacity="0.57"/>
<stop offset="1" stop-color="#FFDD7E" stop-opacity="0"/>
</linearGradient>
<linearGradient id="paint13_linear_7543_28970" x1="-8" y1="450.292" x2="734.5" y2="384.5" gradientUnits="userSpaceOnUse">
<stop stop-color="#FFDD7E" stop-opacity="0.57"/>
<stop offset="1" stop-color="#FFDD7E" stop-opacity="0"/>
</linearGradient>
<linearGradient id="paint14_linear_7543_28970" x1="-8" y1="450.292" x2="734.5" y2="384.5" gradientUnits="userSpaceOnUse">
<stop stop-color="#FFDD7E" stop-opacity="0.57"/>
<stop offset="1" stop-color="#FFDD7E" stop-opacity="0"/>
</linearGradient>
<linearGradient id="paint15_linear_7543_28970" x1="-8" y1="450.292" x2="734.5" y2="384.5" gradientUnits="userSpaceOnUse">
<stop stop-color="#FFDD7E" stop-opacity="0.57"/>
<stop offset="1" stop-color="#FFDD7E" stop-opacity="0"/>
</linearGradient>
<linearGradient id="paint16_linear_7543_28970" x1="-8" y1="450.292" x2="734.5" y2="384.5" gradientUnits="userSpaceOnUse">
<stop stop-color="#FFDD7E" stop-opacity="0.57"/>
<stop offset="1" stop-color="#FFDD7E" stop-opacity="0"/>
</linearGradient>
<linearGradient id="paint17_linear_7543_28970" x1="-8" y1="450.292" x2="734.5" y2="384.5" gradientUnits="userSpaceOnUse">
<stop stop-color="#FFDD7E" stop-opacity="0.57"/>
<stop offset="1" stop-color="#FFDD7E" stop-opacity="0"/>
</linearGradient>
<linearGradient id="paint18_linear_7543_28970" x1="-8" y1="450.292" x2="734.5" y2="384.5" gradientUnits="userSpaceOnUse">
<stop stop-color="#FFDD7E" stop-opacity="0.57"/>
<stop offset="1" stop-color="#FFDD7E" stop-opacity="0"/>
</linearGradient>
<linearGradient id="paint19_linear_7543_28970" x1="-8" y1="450.292" x2="734.5" y2="384.5" gradientUnits="userSpaceOnUse">
<stop stop-color="#FFDD7E" stop-opacity="0.57"/>
<stop offset="1" stop-color="#FFDD7E" stop-opacity="0"/>
</linearGradient>
<linearGradient id="paint20_linear_7543_28970" x1="-8" y1="450.292" x2="734.5" y2="384.5" gradientUnits="userSpaceOnUse">
<stop stop-color="#FFDD7E" stop-opacity="0.57"/>
<stop offset="1" stop-color="#FFDD7E" stop-opacity="0"/>
</linearGradient>
<linearGradient id="paint21_linear_7543_28970" x1="-8" y1="450.292" x2="734.5" y2="384.5" gradientUnits="userSpaceOnUse">
<stop stop-color="#FFDD7E" stop-opacity="0.57"/>
<stop offset="1" stop-color="#FFDD7E" stop-opacity="0"/>
</linearGradient>
<linearGradient id="paint22_linear_7543_28970" x1="-8" y1="450.292" x2="734.5" y2="384.5" gradientUnits="userSpaceOnUse">
<stop stop-color="#FFDD7E" stop-opacity="0.57"/>
<stop offset="1" stop-color="#FFDD7E" stop-opacity="0"/>
</linearGradient>
<linearGradient id="paint23_linear_7543_28970" x1="-8" y1="450.292" x2="734.5" y2="384.5" gradientUnits="userSpaceOnUse">
<stop stop-color="#FFDD7E" stop-opacity="0.57"/>
<stop offset="1" stop-color="#FFDD7E" stop-opacity="0"/>
</linearGradient>
<linearGradient id="paint24_linear_7543_28970" x1="-8" y1="450.292" x2="734.5" y2="384.5" gradientUnits="userSpaceOnUse">
<stop stop-color="#FFDD7E" stop-opacity="0.57"/>
<stop offset="1" stop-color="#FFDD7E" stop-opacity="0"/>
</linearGradient>
<linearGradient id="paint25_linear_7543_28970" x1="-8" y1="450.292" x2="734.5" y2="384.5" gradientUnits="userSpaceOnUse">
<stop stop-color="#FFDD7E" stop-opacity="0.57"/>
<stop offset="1" stop-color="#FFDD7E" stop-opacity="0"/>
</linearGradient>
<linearGradient id="paint26_linear_7543_28970" x1="1523.5" y1="393" x2="842.5" y2="393" gradientUnits="userSpaceOnUse">
<stop stop-color="white" stop-opacity="0.32"/>
<stop offset="1" stop-color="white" stop-opacity="0"/>
</linearGradient>
<linearGradient id="paint27_linear_7543_28970" x1="1523.5" y1="393" x2="842.5" y2="393" gradientUnits="userSpaceOnUse">
<stop stop-color="white" stop-opacity="0.32"/>
<stop offset="1" stop-color="white" stop-opacity="0"/>
</linearGradient>
<linearGradient id="paint28_linear_7543_28970" x1="1523.5" y1="393" x2="842.5" y2="393" gradientUnits="userSpaceOnUse">
<stop stop-color="white" stop-opacity="0.32"/>
<stop offset="1" stop-color="white" stop-opacity="0"/>
</linearGradient>
<linearGradient id="paint29_linear_7543_28970" x1="1523.5" y1="393" x2="842.5" y2="393" gradientUnits="userSpaceOnUse">
<stop stop-color="white" stop-opacity="0.32"/>
<stop offset="1" stop-color="white" stop-opacity="0"/>
</linearGradient>
<linearGradient id="paint30_linear_7543_28970" x1="1523.5" y1="393" x2="842.5" y2="393" gradientUnits="userSpaceOnUse">
<stop stop-color="white" stop-opacity="0.32"/>
<stop offset="1" stop-color="white" stop-opacity="0"/>
</linearGradient>
<linearGradient id="paint31_linear_7543_28970" x1="1523.5" y1="393" x2="842.5" y2="393" gradientUnits="userSpaceOnUse">
<stop stop-color="white" stop-opacity="0.32"/>
<stop offset="1" stop-color="white" stop-opacity="0"/>
</linearGradient>
<linearGradient id="paint32_linear_7543_28970" x1="1523.5" y1="393" x2="842.5" y2="393" gradientUnits="userSpaceOnUse">
<stop stop-color="white" stop-opacity="0.32"/>
<stop offset="1" stop-color="white" stop-opacity="0"/>
</linearGradient>
<linearGradient id="paint33_linear_7543_28970" x1="1523.5" y1="393" x2="842.5" y2="393" gradientUnits="userSpaceOnUse">
<stop stop-color="white" stop-opacity="0.32"/>
<stop offset="1" stop-color="white" stop-opacity="0"/>
</linearGradient>
<linearGradient id="paint34_linear_7543_28970" x1="1523.5" y1="393" x2="842.5" y2="393" gradientUnits="userSpaceOnUse">
<stop stop-color="white" stop-opacity="0.32"/>
<stop offset="1" stop-color="white" stop-opacity="0"/>
</linearGradient>
<linearGradient id="paint35_linear_7543_28970" x1="1523.5" y1="393" x2="842.5" y2="393" gradientUnits="userSpaceOnUse">
<stop stop-color="white" stop-opacity="0.32"/>
<stop offset="1" stop-color="white" stop-opacity="0"/>
</linearGradient>
<linearGradient id="paint36_linear_7543_28970" x1="1523.5" y1="393" x2="842.5" y2="393" gradientUnits="userSpaceOnUse">
<stop stop-color="white" stop-opacity="0.32"/>
<stop offset="1" stop-color="white" stop-opacity="0"/>
</linearGradient>
<linearGradient id="paint37_linear_7543_28970" x1="1523.5" y1="393" x2="842.5" y2="393" gradientUnits="userSpaceOnUse">
<stop stop-color="white" stop-opacity="0.32"/>
<stop offset="1" stop-color="white" stop-opacity="0"/>
</linearGradient>
<linearGradient id="paint38_linear_7543_28970" x1="1523.5" y1="393" x2="842.5" y2="393" gradientUnits="userSpaceOnUse">
<stop stop-color="white" stop-opacity="0.32"/>
<stop offset="1" stop-color="white" stop-opacity="0"/>
</linearGradient>
<linearGradient id="paint39_linear_7543_28970" x1="1523.5" y1="393" x2="842.5" y2="393" gradientUnits="userSpaceOnUse">
<stop stop-color="white" stop-opacity="0.32"/>
<stop offset="1" stop-color="white" stop-opacity="0"/>
</linearGradient>
<linearGradient id="paint40_linear_7543_28970" x1="1523.5" y1="393" x2="842.5" y2="393" gradientUnits="userSpaceOnUse">
<stop stop-color="white" stop-opacity="0.32"/>
<stop offset="1" stop-color="white" stop-opacity="0"/>
</linearGradient>
<linearGradient id="paint41_linear_7543_28970" x1="1523.5" y1="393" x2="842.5" y2="393" gradientUnits="userSpaceOnUse">
<stop stop-color="white" stop-opacity="0.32"/>
<stop offset="1" stop-color="white" stop-opacity="0"/>
</linearGradient>
<linearGradient id="paint42_linear_7543_28970" x1="1523.5" y1="393" x2="842.5" y2="393" gradientUnits="userSpaceOnUse">
<stop stop-color="white" stop-opacity="0.32"/>
<stop offset="1" stop-color="white" stop-opacity="0"/>
</linearGradient>
</defs>
</svg>
