<svg width="1312" height="644" viewBox="0 0 1312 644" fill="none" xmlns="http://www.w3.org/2000/svg">
<g clip-path="url(#clip0_7615_10982)">
<path d="M16 16H1296V628H16V16Z" fill="#18181B"/>
<g opacity="0.5" filter="url(#filter0_f_7615_10982)">
<path d="M419.472 624.242C419.472 669.684 364.006 647.564 269.985 647.564C175.964 647.564 -139 678.748 -139 633.306C-139 587.864 408.456 360 502.477 360C596.498 360 419.472 578.8 419.472 624.242Z" fill="#FACC15"/>
</g>
<path d="M740 113.218C739.744 113.218 739.488 113.12 739.293 112.925C738.902 112.534 738.902 111.902 739.293 111.511L793.388 57.416H964.169L1011.25 104.494H1096.5C1097.05 104.494 1097.5 104.942 1097.5 105.494C1097.5 106.046 1097.05 106.494 1096.5 106.494H1010.42L963.34 59.416H794.216L740.707 112.925C740.512 113.121 740.256 113.218 740 113.218Z" fill="#FFDD7E" fill-opacity="0.17"/>
<path d="M1103.67 112.718C1099.76 112.718 1096.58 109.541 1096.58 105.635C1096.58 101.729 1099.76 98.552 1103.67 98.552C1107.57 98.552 1110.75 101.729 1110.75 105.635C1110.75 109.541 1107.57 112.718 1103.67 112.718ZM1103.67 99.552C1100.31 99.552 1097.58 102.281 1097.58 105.635C1097.58 108.989 1100.31 111.718 1103.67 111.718C1107.02 111.718 1109.75 108.989 1109.75 105.635C1109.75 102.281 1107.02 99.552 1103.67 99.552Z" fill="#FFDD7E" fill-opacity="0.17"/>
<path d="M1103.67 110.247C1106.21 110.247 1108.28 108.182 1108.28 105.635C1108.28 103.088 1106.21 101.023 1103.67 101.023C1101.12 101.023 1099.05 103.088 1099.05 105.635C1099.05 108.182 1101.12 110.247 1103.67 110.247Z" fill="#FFDD7E" fill-opacity="0.17"/>
<path d="M966.875 58.417C966.875 60.304 965.345 61.834 963.458 61.834C961.571 61.834 960.041 60.304 960.041 58.417C960.041 56.53 961.571 55 963.458 55C965.345 55 966.875 56.53 966.875 58.417Z" fill="#FFDD7E" fill-opacity="0.17"/>
<path d="M1051.58 112.626H972.834C972.282 112.626 971.834 112.178 971.834 111.626C971.834 111.074 972.282 110.626 972.834 110.626H1050.75L1095.42 65.9593H1266.09L1299.75 32.2932C1300.14 31.9022 1300.77 31.9022 1301.17 32.2932C1301.56 32.6842 1301.56 33.3162 1301.17 33.7072L1266.91 67.9583H1096.25L1051.58 112.626Z" fill="#FFDD7E" fill-opacity="0.17"/>
<path d="M1020.33 130.126H946.626L906.043 89.5433H808.5C808.224 89.5433 808 89.3193 808 89.0433C808 88.7673 808.224 88.5433 808.5 88.5433H906.457L947.04 129.126H1020.33C1020.61 129.126 1020.83 129.35 1020.83 129.626C1020.83 129.902 1020.61 130.126 1020.33 130.126Z" fill="#FFDD7E" fill-opacity="0.17"/>
<path d="M1043.75 136.709C1039.84 136.709 1036.67 133.532 1036.67 129.626C1036.67 125.72 1039.84 122.543 1043.75 122.543C1047.66 122.543 1050.83 125.72 1050.83 129.626C1050.83 133.532 1047.66 136.709 1043.75 136.709ZM1043.75 123.543C1040.4 123.543 1037.67 126.272 1037.67 129.626C1037.67 132.98 1040.4 135.709 1043.75 135.709C1047.1 135.709 1049.83 132.98 1049.83 129.626C1049.83 126.272 1047.1 123.543 1043.75 123.543Z" fill="#FFDD7E" fill-opacity="0.17"/>
<path d="M1043.75 134.238C1046.3 134.238 1048.36 132.173 1048.36 129.626C1048.36 127.079 1046.3 125.014 1043.75 125.014C1041.2 125.014 1039.14 127.079 1039.14 129.626C1039.14 132.173 1041.2 134.238 1043.75 134.238Z" fill="#FFDD7E" fill-opacity="0.17"/>
<path d="M967.677 116.601C964.934 116.601 962.702 114.369 962.702 111.626C962.702 108.883 964.934 106.651 967.677 106.651C970.42 106.651 972.652 108.883 972.652 111.626C972.652 114.369 970.42 116.601 967.677 116.601ZM967.677 107.651C965.485 107.651 963.702 109.434 963.702 111.626C963.702 113.818 965.485 115.601 967.677 115.601C969.869 115.601 971.652 113.818 971.652 111.626C971.652 109.434 969.869 107.651 967.677 107.651Z" fill="#FFDD7E" fill-opacity="0.17"/>
<path d="M970.813 111.626C970.813 113.357 969.409 114.761 967.678 114.761C965.947 114.761 964.543 113.357 964.543 111.626C964.543 109.895 965.947 108.491 967.678 108.491C969.409 108.491 970.813 109.895 970.813 111.626Z" fill="#FFDD7E" fill-opacity="0.17"/>
<path d="M1023.25 133.459C1025.37 133.459 1027.08 131.743 1027.08 129.626C1027.08 127.509 1025.37 125.793 1023.25 125.793C1021.13 125.793 1019.42 127.509 1019.42 129.626C1019.42 131.743 1021.13 133.459 1023.25 133.459Z" fill="#FFDD7E" fill-opacity="0.17"/>
<path d="M1351.17 89.5433H1037.17C1036.89 89.5433 1036.67 89.3193 1036.67 89.0433C1036.67 88.7673 1036.89 88.5433 1037.17 88.5433H1351.17C1351.44 88.5433 1351.67 88.7673 1351.67 89.0433C1351.67 89.3193 1351.44 89.5433 1351.17 89.5433Z" fill="#FFDD7E" fill-opacity="0.17"/>
<path d="M1034.33 92.8763C1036.45 92.8763 1038.17 91.1602 1038.17 89.0433C1038.17 86.9263 1036.45 85.2103 1034.33 85.2103C1032.22 85.2103 1030.5 86.9263 1030.5 89.0433C1030.5 91.1602 1032.22 92.8763 1034.33 92.8763Z" fill="#FFDD7E" fill-opacity="0.17"/>
<path d="M1351.17 92.8773C1353.28 92.8773 1355 91.1607 1355 89.0433C1355 86.9258 1353.28 85.2093 1351.17 85.2093C1349.05 85.2093 1347.33 86.9258 1347.33 89.0433C1347.33 91.1607 1349.05 92.8773 1351.17 92.8773Z" fill="#FFDD7E" fill-opacity="0.17"/>
<path d="M349 166.218C348.744 166.218 348.488 166.12 348.293 165.925C347.902 165.534 347.902 164.902 348.293 164.511L402.388 110.416H573.169L620.248 157.494H705.501C706.053 157.494 706.501 157.942 706.501 158.494C706.501 159.046 706.053 159.494 705.501 159.494H619.419L572.34 112.416H403.216L349.707 165.925C349.512 166.121 349.256 166.218 349 166.218Z" fill="#FFDD7E" fill-opacity="0.17"/>
<path d="M712.667 165.718C708.761 165.718 705.584 162.541 705.584 158.635C705.584 154.729 708.761 151.552 712.667 151.552C716.573 151.552 719.75 154.729 719.75 158.635C719.75 162.541 716.573 165.718 712.667 165.718ZM712.667 152.552C709.313 152.552 706.584 155.281 706.584 158.635C706.584 161.989 709.313 164.718 712.667 164.718C716.021 164.718 718.75 161.989 718.75 158.635C718.75 155.281 716.021 152.552 712.667 152.552Z" fill="#FFDD7E" fill-opacity="0.17"/>
<path d="M712.667 163.247C715.214 163.247 717.279 161.182 717.279 158.635C717.279 156.088 715.214 154.023 712.667 154.023C710.12 154.023 708.055 156.088 708.055 158.635C708.055 161.182 710.12 163.247 712.667 163.247Z" fill="#FFDD7E" fill-opacity="0.17"/>
<path d="M575.875 111.417C575.875 113.304 574.345 114.834 572.458 114.834C570.571 114.834 569.041 113.304 569.041 111.417C569.041 109.53 570.571 108 572.458 108C574.345 108 575.875 109.53 575.875 111.417Z" fill="#FFDD7E" fill-opacity="0.17"/>
<path d="M660.581 165.626H581.834C581.282 165.626 580.834 165.178 580.834 164.626C580.834 164.074 581.282 163.626 581.834 163.626H659.753L704.419 118.959H875.086L908.751 85.2932C909.142 84.9022 909.774 84.9022 910.165 85.2932C910.556 85.6842 910.556 86.3162 910.165 86.7072L875.914 120.958H705.247L660.581 165.626Z" fill="#FFDD7E" fill-opacity="0.17"/>
<path d="M629.333 183.126H555.626L515.043 142.543H417.5C417.224 142.543 417 142.319 417 142.043C417 141.767 417.224 141.543 417.5 141.543H515.457L556.04 182.126H629.333C629.609 182.126 629.833 182.35 629.833 182.626C629.833 182.902 629.609 183.126 629.333 183.126Z" fill="#FFDD7E" fill-opacity="0.17"/>
<path d="M652.75 189.709C648.844 189.709 645.667 186.532 645.667 182.626C645.667 178.72 648.844 175.543 652.75 175.543C656.656 175.543 659.833 178.72 659.833 182.626C659.833 186.532 656.656 189.709 652.75 189.709ZM652.75 176.543C649.396 176.543 646.667 179.272 646.667 182.626C646.667 185.98 649.396 188.709 652.75 188.709C656.104 188.709 658.833 185.98 658.833 182.626C658.833 179.272 656.104 176.543 652.75 176.543Z" fill="#FFDD7E" fill-opacity="0.17"/>
<path d="M652.75 187.238C655.297 187.238 657.362 185.173 657.362 182.626C657.362 180.079 655.297 178.014 652.75 178.014C650.203 178.014 648.138 180.079 648.138 182.626C648.138 185.173 650.203 187.238 652.75 187.238Z" fill="#FFDD7E" fill-opacity="0.17"/>
<path d="M576.677 169.601C573.934 169.601 571.702 167.369 571.702 164.626C571.702 161.883 573.934 159.651 576.677 159.651C579.42 159.651 581.652 161.883 581.652 164.626C581.652 167.369 579.42 169.601 576.677 169.601ZM576.677 160.651C574.485 160.651 572.702 162.434 572.702 164.626C572.702 166.818 574.485 168.601 576.677 168.601C578.869 168.601 580.652 166.818 580.652 164.626C580.652 162.434 578.869 160.651 576.677 160.651Z" fill="#FFDD7E" fill-opacity="0.17"/>
<path d="M579.813 164.626C579.813 166.357 578.409 167.761 576.678 167.761C574.947 167.761 573.543 166.357 573.543 164.626C573.543 162.895 574.947 161.491 576.678 161.491C578.409 161.491 579.813 162.895 579.813 164.626Z" fill="#FFDD7E" fill-opacity="0.17"/>
<path d="M632.25 186.459C634.367 186.459 636.083 184.743 636.083 182.626C636.083 180.509 634.367 178.793 632.25 178.793C630.133 178.793 628.417 180.509 628.417 182.626C628.417 184.743 630.133 186.459 632.25 186.459Z" fill="#FFDD7E" fill-opacity="0.17"/>
<path d="M960.167 142.543H646.167C645.891 142.543 645.667 142.319 645.667 142.043C645.667 141.767 645.891 141.543 646.167 141.543H960.167C960.443 141.543 960.667 141.767 960.667 142.043C960.667 142.319 960.443 142.543 960.167 142.543Z" fill="#FFDD7E" fill-opacity="0.17"/>
<path d="M643.333 145.876C645.45 145.876 647.166 144.16 647.166 142.043C647.166 139.926 645.45 138.21 643.333 138.21C641.216 138.21 639.5 139.926 639.5 142.043C639.5 144.16 641.216 145.876 643.333 145.876Z" fill="#FFDD7E" fill-opacity="0.17"/>
<path d="M960.167 145.877C962.284 145.877 964.001 144.161 964.001 142.043C964.001 139.926 962.284 138.209 960.167 138.209C958.05 138.209 956.333 139.926 956.333 142.043C956.333 144.161 958.05 145.877 960.167 145.877Z" fill="#FFDD7E" fill-opacity="0.17"/>
</g>
<path d="M1268 8C1287.88 8 1304 24.1178 1304 44V600C1304 619.882 1287.88 636 1268 636H44C24.1178 636 8 619.882 8 600V44C8 24.1177 24.1177 8 44 8H1268Z" stroke="white" stroke-opacity="0.15" stroke-width="16"/>
<defs>
<filter id="filter0_f_7615_10982" x="-354.502" y="144.498" width="1100" height="729.003" filterUnits="userSpaceOnUse" color-interpolation-filters="sRGB">
<feFlood flood-opacity="0" result="BackgroundImageFix"/>
<feBlend mode="normal" in="SourceGraphic" in2="BackgroundImageFix" result="shape"/>
<feGaussianBlur stdDeviation="107.751" result="effect1_foregroundBlur_7615_10982"/>
</filter>
<clipPath id="clip0_7615_10982">
<path d="M16 44C16 28.536 28.536 16 44 16H1268C1283.46 16 1296 28.536 1296 44V600C1296 615.464 1283.46 628 1268 628H44C28.5361 628 16 615.464 16 600V44Z" fill="white"/>
</clipPath>
</defs>
</svg>
