<svg width="1280" height="612" viewBox="0 0 1280 612" fill="none" xmlns="http://www.w3.org/2000/svg">
<path d="M0 0H1280V612H0V0Z" fill="#18181B"/>
<g opacity="0.5" filter="url(#filter0_f_11023_3627)">
<path d="M403.472 608.242C403.472 653.684 348.006 631.564 253.985 631.564C159.964 631.564 -155 662.748 -155 617.306C-155 571.864 392.456 344 486.477 344C580.498 344 403.472 562.8 403.472 608.242Z" fill="#FACC15"/>
</g>
<path d="M724 97.218C723.744 97.218 723.488 97.12 723.293 96.925C722.902 96.534 722.902 95.902 723.293 95.511L777.388 41.416H948.169L995.248 88.494H1080.5C1081.05 88.494 1081.5 88.942 1081.5 89.494C1081.5 90.046 1081.05 90.494 1080.5 90.494H994.419L947.34 43.416H778.216L724.707 96.925C724.512 97.121 724.256 97.218 724 97.218Z" fill="#FFDD7E" fill-opacity="0.17"/>
<path d="M1087.67 96.718C1083.76 96.718 1080.58 93.541 1080.58 89.635C1080.58 85.729 1083.76 82.552 1087.67 82.552C1091.57 82.552 1094.75 85.729 1094.75 89.635C1094.75 93.541 1091.57 96.718 1087.67 96.718ZM1087.67 83.552C1084.31 83.552 1081.58 86.281 1081.58 89.635C1081.58 92.989 1084.31 95.718 1087.67 95.718C1091.02 95.718 1093.75 92.989 1093.75 89.635C1093.75 86.281 1091.02 83.552 1087.67 83.552Z" fill="#FFDD7E" fill-opacity="0.17"/>
<path d="M1087.67 94.247C1090.21 94.247 1092.28 92.1821 1092.28 89.635C1092.28 87.0879 1090.21 85.023 1087.67 85.023C1085.12 85.023 1083.05 87.0879 1083.05 89.635C1083.05 92.1821 1085.12 94.247 1087.67 94.247Z" fill="#FFDD7E" fill-opacity="0.17"/>
<path d="M950.875 42.417C950.875 44.304 949.345 45.834 947.458 45.834C945.571 45.834 944.041 44.304 944.041 42.417C944.041 40.53 945.571 39 947.458 39C949.345 39 950.875 40.53 950.875 42.417Z" fill="#FFDD7E" fill-opacity="0.17"/>
<path d="M1035.58 96.6263H956.834C956.282 96.6263 955.834 96.1783 955.834 95.6263C955.834 95.0742 956.282 94.6263 956.834 94.6263H1034.75L1079.42 49.9593H1250.09L1283.75 16.2932C1284.14 15.9022 1284.77 15.9022 1285.17 16.2932C1285.56 16.6842 1285.56 17.3162 1285.17 17.7072L1250.91 51.9583H1080.25L1035.58 96.6263Z" fill="#FFDD7E" fill-opacity="0.17"/>
<path d="M1004.33 114.126H930.626L890.043 73.5433H792.5C792.224 73.5433 792 73.3193 792 73.0433C792 72.7673 792.224 72.5433 792.5 72.5433H890.457L931.04 113.126H1004.33C1004.61 113.126 1004.83 113.35 1004.83 113.626C1004.83 113.902 1004.61 114.126 1004.33 114.126Z" fill="#FFDD7E" fill-opacity="0.17"/>
<path d="M1027.75 120.709C1023.84 120.709 1020.67 117.532 1020.67 113.626C1020.67 109.72 1023.84 106.543 1027.75 106.543C1031.66 106.543 1034.83 109.72 1034.83 113.626C1034.83 117.532 1031.66 120.709 1027.75 120.709ZM1027.75 107.543C1024.4 107.543 1021.67 110.272 1021.67 113.626C1021.67 116.98 1024.4 119.709 1027.75 119.709C1031.1 119.709 1033.83 116.98 1033.83 113.626C1033.83 110.272 1031.1 107.543 1027.75 107.543Z" fill="#FFDD7E" fill-opacity="0.17"/>
<path d="M1027.75 118.238C1030.3 118.238 1032.36 116.173 1032.36 113.626C1032.36 111.079 1030.3 109.014 1027.75 109.014C1025.2 109.014 1023.14 111.079 1023.14 113.626C1023.14 116.173 1025.2 118.238 1027.75 118.238Z" fill="#FFDD7E" fill-opacity="0.17"/>
<path d="M951.677 100.601C948.934 100.601 946.702 98.3692 946.702 95.6262C946.702 92.8832 948.934 90.6512 951.677 90.6512C954.42 90.6512 956.652 92.8832 956.652 95.6262C956.652 98.3692 954.42 100.601 951.677 100.601ZM951.677 91.6512C949.485 91.6512 947.702 93.4342 947.702 95.6262C947.702 97.8182 949.485 99.6012 951.677 99.6012C953.869 99.6012 955.652 97.8182 955.652 95.6262C955.652 93.4342 953.869 91.6512 951.677 91.6512Z" fill="#FFDD7E" fill-opacity="0.17"/>
<path d="M954.813 95.6262C954.813 97.3572 953.409 98.7612 951.678 98.7612C949.947 98.7612 948.543 97.3572 948.543 95.6262C948.543 93.8952 949.947 92.4912 951.678 92.4912C953.409 92.4912 954.813 93.8952 954.813 95.6262Z" fill="#FFDD7E" fill-opacity="0.17"/>
<path d="M1007.25 117.459C1009.37 117.459 1011.08 115.743 1011.08 113.626C1011.08 111.509 1009.37 109.793 1007.25 109.793C1005.13 109.793 1003.42 111.509 1003.42 113.626C1003.42 115.743 1005.13 117.459 1007.25 117.459Z" fill="#FFDD7E" fill-opacity="0.17"/>
<path d="M1335.17 73.5433H1021.17C1020.89 73.5433 1020.67 73.3193 1020.67 73.0433C1020.67 72.7673 1020.89 72.5433 1021.17 72.5433H1335.17C1335.44 72.5433 1335.67 72.7673 1335.67 73.0433C1335.67 73.3193 1335.44 73.5433 1335.17 73.5433Z" fill="#FFDD7E" fill-opacity="0.17"/>
<path d="M1018.33 76.8763C1020.45 76.8763 1022.17 75.1602 1022.17 73.0433C1022.17 70.9263 1020.45 69.2103 1018.33 69.2103C1016.22 69.2103 1014.5 70.9263 1014.5 73.0433C1014.5 75.1602 1016.22 76.8763 1018.33 76.8763Z" fill="#FFDD7E" fill-opacity="0.17"/>
<path d="M1335.17 76.8773C1337.28 76.8773 1339 75.1607 1339 73.0433C1339 70.9258 1337.28 69.2093 1335.17 69.2093C1333.05 69.2093 1331.33 70.9258 1331.33 73.0433C1331.33 75.1607 1333.05 76.8773 1335.17 76.8773Z" fill="#FFDD7E" fill-opacity="0.17"/>
<path d="M333 150.218C332.744 150.218 332.488 150.12 332.293 149.925C331.902 149.534 331.902 148.902 332.293 148.511L386.388 94.416H557.169L604.248 141.494H689.501C690.053 141.494 690.501 141.942 690.501 142.494C690.501 143.046 690.053 143.494 689.501 143.494H603.419L556.34 96.416H387.216L333.707 149.925C333.512 150.121 333.256 150.218 333 150.218Z" fill="#FFDD7E" fill-opacity="0.17"/>
<path d="M696.667 149.718C692.761 149.718 689.584 146.541 689.584 142.635C689.584 138.729 692.761 135.552 696.667 135.552C700.573 135.552 703.75 138.729 703.75 142.635C703.75 146.541 700.573 149.718 696.667 149.718ZM696.667 136.552C693.313 136.552 690.584 139.281 690.584 142.635C690.584 145.989 693.313 148.718 696.667 148.718C700.021 148.718 702.75 145.989 702.75 142.635C702.75 139.281 700.021 136.552 696.667 136.552Z" fill="#FFDD7E" fill-opacity="0.17"/>
<path d="M696.667 147.247C699.214 147.247 701.279 145.182 701.279 142.635C701.279 140.088 699.214 138.023 696.667 138.023C694.12 138.023 692.055 140.088 692.055 142.635C692.055 145.182 694.12 147.247 696.667 147.247Z" fill="#FFDD7E" fill-opacity="0.17"/>
<path d="M559.875 95.417C559.875 97.304 558.345 98.834 556.458 98.834C554.571 98.834 553.041 97.304 553.041 95.417C553.041 93.53 554.571 92 556.458 92C558.345 92 559.875 93.53 559.875 95.417Z" fill="#FFDD7E" fill-opacity="0.17"/>
<path d="M644.581 149.626H565.834C565.282 149.626 564.834 149.178 564.834 148.626C564.834 148.074 565.282 147.626 565.834 147.626H643.753L688.419 102.959H859.086L892.751 69.2932C893.142 68.9022 893.774 68.9022 894.165 69.2932C894.556 69.6842 894.556 70.3162 894.165 70.7072L859.914 104.958H689.247L644.581 149.626Z" fill="#FFDD7E" fill-opacity="0.17"/>
<path d="M613.333 167.126H539.626L499.043 126.543H401.5C401.224 126.543 401 126.319 401 126.043C401 125.767 401.224 125.543 401.5 125.543H499.457L540.04 166.126H613.333C613.609 166.126 613.833 166.35 613.833 166.626C613.833 166.902 613.609 167.126 613.333 167.126Z" fill="#FFDD7E" fill-opacity="0.17"/>
<path d="M636.75 173.709C632.844 173.709 629.667 170.532 629.667 166.626C629.667 162.72 632.844 159.543 636.75 159.543C640.656 159.543 643.833 162.72 643.833 166.626C643.833 170.532 640.656 173.709 636.75 173.709ZM636.75 160.543C633.396 160.543 630.667 163.272 630.667 166.626C630.667 169.98 633.396 172.709 636.75 172.709C640.104 172.709 642.833 169.98 642.833 166.626C642.833 163.272 640.104 160.543 636.75 160.543Z" fill="#FFDD7E" fill-opacity="0.17"/>
<path d="M636.75 171.238C639.297 171.238 641.362 169.173 641.362 166.626C641.362 164.079 639.297 162.014 636.75 162.014C634.203 162.014 632.138 164.079 632.138 166.626C632.138 169.173 634.203 171.238 636.75 171.238Z" fill="#FFDD7E" fill-opacity="0.17"/>
<path d="M560.677 153.601C557.934 153.601 555.702 151.369 555.702 148.626C555.702 145.883 557.934 143.651 560.677 143.651C563.42 143.651 565.652 145.883 565.652 148.626C565.652 151.369 563.42 153.601 560.677 153.601ZM560.677 144.651C558.485 144.651 556.702 146.434 556.702 148.626C556.702 150.818 558.485 152.601 560.677 152.601C562.869 152.601 564.652 150.818 564.652 148.626C564.652 146.434 562.869 144.651 560.677 144.651Z" fill="#FFDD7E" fill-opacity="0.17"/>
<path d="M563.813 148.626C563.813 150.357 562.409 151.761 560.678 151.761C558.947 151.761 557.543 150.357 557.543 148.626C557.543 146.895 558.947 145.491 560.678 145.491C562.409 145.491 563.813 146.895 563.813 148.626Z" fill="#FFDD7E" fill-opacity="0.17"/>
<path d="M616.25 170.459C618.367 170.459 620.083 168.743 620.083 166.626C620.083 164.509 618.367 162.793 616.25 162.793C614.133 162.793 612.417 164.509 612.417 166.626C612.417 168.743 614.133 170.459 616.25 170.459Z" fill="#FFDD7E" fill-opacity="0.17"/>
<path d="M944.167 126.543H630.167C629.891 126.543 629.667 126.319 629.667 126.043C629.667 125.767 629.891 125.543 630.167 125.543H944.167C944.443 125.543 944.667 125.767 944.667 126.043C944.667 126.319 944.443 126.543 944.167 126.543Z" fill="#FFDD7E" fill-opacity="0.17"/>
<path d="M627.333 129.876C629.45 129.876 631.166 128.16 631.166 126.043C631.166 123.926 629.45 122.21 627.333 122.21C625.216 122.21 623.5 123.926 623.5 126.043C623.5 128.16 625.216 129.876 627.333 129.876Z" fill="#FFDD7E" fill-opacity="0.17"/>
<path d="M944.167 129.877C946.284 129.877 948.001 128.161 948.001 126.043C948.001 123.926 946.284 122.209 944.167 122.209C942.05 122.209 940.333 123.926 940.333 126.043C940.333 128.161 942.05 129.877 944.167 129.877Z" fill="#FFDD7E" fill-opacity="0.17"/>
<defs>
<filter id="filter0_f_11023_3627" x="-370.502" y="128.498" width="1100" height="729.003" filterUnits="userSpaceOnUse" color-interpolation-filters="sRGB">
<feFlood flood-opacity="0" result="BackgroundImageFix"/>
<feBlend mode="normal" in="SourceGraphic" in2="BackgroundImageFix" result="shape"/>
<feGaussianBlur stdDeviation="107.751" result="effect1_foregroundBlur_11023_3627"/>
</filter>
</defs>
</svg>
