<svg id="e1MwTiEFtvN1" xmlns="http://www.w3.org/2000/svg" xmlns:xlink="http://www.w3.org/1999/xlink" viewBox="0 0 1520 703" shape-rendering="geometricPrecision" text-rendering="geometricPrecision" project-id="3c9b199b84284fee89f032a93236d297" export-id="386a0eba3eaf447895cda840f9a5f2a8" cached="false"><defs><filter id="e1MwTiEFtvN2-filter" x="-150%" y="-150%" width="400%" height="400%"><feGaussianBlur id="e1MwTiEFtvN2-filter-blur-0" stdDeviation="107.750999,107.750999" result="result"/></filter><linearGradient id="e1MwTiEFtvN6-fill" x1="23" y1="258" x2="1282" y2="438" spreadMethod="pad" gradientUnits="userSpaceOnUse" gradientTransform="translate(0 0)"><stop id="e1MwTiEFtvN6-fill-0" offset="0%" stop-color="#2f1701"/><stop id="e1MwTiEFtvN6-fill-1" offset="100%" stop-color="#443201"/></linearGradient><radialGradient id="e1MwTiEFtvN37-fill" cx="0" cy="0" r="1" spreadMethod="pad" gradientUnits="userSpaceOnUse" gradientTransform="matrix(0 47.5362 -47.9684 0 62.0768 61.518)"><stop id="e1MwTiEFtvN37-fill-0" offset="0%" stop-color="#c5a929"/><stop id="e1MwTiEFtvN37-fill-1" offset="100%" stop-color="#56440d"/></radialGradient><radialGradient id="e1MwTiEFtvN103-fill" cx="0" cy="0" r="1" spreadMethod="pad" gradientUnits="userSpaceOnUse" gradientTransform="matrix(0 47.5362 -47.9684 0 62.076 61.518)"><stop id="e1MwTiEFtvN103-fill-0" offset="0%" stop-color="#c5a929"/><stop id="e1MwTiEFtvN103-fill-1" offset="100%" stop-color="#56440d"/></radialGradient><radialGradient id="e1MwTiEFtvN126-fill" cx="0" cy="0" r="1" spreadMethod="pad" gradientUnits="userSpaceOnUse" gradientTransform="matrix(0 47.5362 -47.9684 0 62.077 61.518)"><stop id="e1MwTiEFtvN126-fill-0" offset="0%" stop-color="#c5a929"/><stop id="e1MwTiEFtvN126-fill-1" offset="100%" stop-color="#56440d"/></radialGradient><radialGradient id="e1MwTiEFtvN135-fill" cx="0" cy="0" r="1" spreadMethod="pad" gradientUnits="userSpaceOnUse" gradientTransform="matrix(0 47.5362 -47.9684 0 62.077 61.517)"><stop id="e1MwTiEFtvN135-fill-0" offset="0%" stop-color="#c5a929"/><stop id="e1MwTiEFtvN135-fill-1" offset="100%" stop-color="#56440d"/></radialGradient><linearGradient id="e1MwTiEFtvN148-stroke" x1="229.706" y1="621.612" x2="23.3431" y2="621.612" spreadMethod="pad" gradientUnits="userSpaceOnUse" gradientTransform="translate(0 0)"><stop id="e1MwTiEFtvN148-stroke-0" offset="0%" stop-color="#fde047"/><stop id="e1MwTiEFtvN148-stroke-1" offset="100%" stop-color="rgba(253,224,71,0)"/></linearGradient><linearGradient id="e1MwTiEFtvN152-stroke" x1="123.448" y1="577.991" x2="-82.9147" y2="577.991" spreadMethod="pad" gradientUnits="userSpaceOnUse" gradientTransform="translate(0 0)"><stop id="e1MwTiEFtvN152-stroke-0" offset="0%" stop-color="#fde047"/><stop id="e1MwTiEFtvN152-stroke-1" offset="100%" stop-color="rgba(253,224,71,0)"/></linearGradient><radialGradient id="e1MwTiEFtvN181-fill" cx="0" cy="0" r="1" spreadMethod="pad" gradientUnits="userSpaceOnUse" gradientTransform="matrix(0 47.5362 -47.9684 0 62.08 61.518)"><stop id="e1MwTiEFtvN181-fill-0" offset="0%" stop-color="#c5a929"/><stop id="e1MwTiEFtvN181-fill-1" offset="100%" stop-color="#56440d"/></radialGradient><radialGradient id="e1MwTiEFtvN248-fill" cx="0" cy="0" r="1" spreadMethod="pad" gradientUnits="userSpaceOnUse" gradientTransform="matrix(0 47.5362 -47.9684 0 62.077 61.518)"><stop id="e1MwTiEFtvN248-fill-0" offset="0%" stop-color="#c5a929"/><stop id="e1MwTiEFtvN248-fill-1" offset="100%" stop-color="#56440d"/></radialGradient><radialGradient id="e1MwTiEFtvN271-fill" cx="0" cy="0" r="1" spreadMethod="pad" gradientUnits="userSpaceOnUse" gradientTransform="matrix(0 47.5362 -47.9684 0 62.08 61.518)"><stop id="e1MwTiEFtvN271-fill-0" offset="0%" stop-color="#c5a929"/><stop id="e1MwTiEFtvN271-fill-1" offset="100%" stop-color="#56440d"/></radialGradient><radialGradient id="e1MwTiEFtvN280-fill" cx="0" cy="0" r="1" spreadMethod="pad" gradientUnits="userSpaceOnUse" gradientTransform="matrix(0 47.5362 -47.9684 0 62.076 61.517)"><stop id="e1MwTiEFtvN280-fill-0" offset="0%" stop-color="#c5a929"/><stop id="e1MwTiEFtvN280-fill-1" offset="100%" stop-color="#56440d"/></radialGradient><linearGradient id="e1MwTiEFtvN293-stroke" x1="1085.29" y1="253.318" x2="1291.66" y2="253.318" spreadMethod="pad" gradientUnits="userSpaceOnUse" gradientTransform="translate(0 0)"><stop id="e1MwTiEFtvN293-stroke-0" offset="0%" stop-color="#fde047"/><stop id="e1MwTiEFtvN293-stroke-1" offset="100%" stop-color="rgba(253,224,71,0)"/></linearGradient><linearGradient id="e1MwTiEFtvN296-stroke" x1="1191.55" y1="296.939" x2="1397.91" y2="296.939" spreadMethod="pad" gradientUnits="userSpaceOnUse" gradientTransform="translate(0 0)"><stop id="e1MwTiEFtvN296-stroke-0" offset="0%" stop-color="#fde047"/><stop id="e1MwTiEFtvN296-stroke-1" offset="100%" stop-color="rgba(253,224,71,0)"/></linearGradient><filter id="e1MwTiEFtvN303-filter" x="-150%" y="-150%" width="400%" height="400%"><feGaussianBlur id="e1MwTiEFtvN303-filter-blur-0" stdDeviation="107.750999,107.750999" result="result"/></filter><linearGradient id="e1MwTiEFtvN307-stroke" x1="641" y1="258" x2="641" y2="618" spreadMethod="pad" gradientUnits="userSpaceOnUse" gradientTransform="translate(0 0)"><stop id="e1MwTiEFtvN307-stroke-0" offset="0%" stop-color="#facc15"/><stop id="e1MwTiEFtvN307-stroke-1" offset="100%" stop-color="#fff"/></linearGradient></defs><g transform="translate(126-158.243988)" opacity="0.5" filter="url(#e1MwTiEFtvN2-filter)"><path d="M1152.47,600.836c0,66.181-55.46,33.965-149.48,33.965-94.026,0-408.99,45.416-408.99-20.764C594,547.856,1141.46,216,1235.48,216s-83.01,318.656-83.01,384.836Z" fill="#facc15"/></g><g transform="translate(126-158.243988)" clip-path="url(#e1MwTiEFtvN305)"><g><path d="M0,286c0-15.464,12.536-28,28-28h1226c15.46,0,28,12.536,28,28v304c0,15.464-12.54,28-28,28h-1226c-15.464,0-28-12.536-28-28v-304Z" fill="url(#e1MwTiEFtvN6-fill)"/><g clip-path="url(#e1MwTiEFtvN301)"><g opacity="0.3"><path d="M392.229,554.021h10.15v10.054h-10.15v-10.054Z" fill="#facc15" fill-opacity="0.3"/><path d="M392.229,595.643h10.15v10.054h-10.15v-10.054Z" fill="#facc15" fill-opacity="0.3"/><path d="M380.388,582.328v8.936h9.031v-8.936h-9.031Z" fill="none" stroke="#f87171" stroke-width="1.1185"/><path d="M367.428,540.147h10.15v10.054h-10.15v-10.054Z" fill="#facc15" fill-opacity="0.3"/><path d="M367.428,595.644h10.15v10.054h-10.15v-10.054Z" fill="#ef4444" fill-opacity="0.5"/><path d="M355.027,609.517h10.151v10.054h-10.151v-10.054Z" fill="#facc15" fill-opacity="0.3"/><path d="M342.627,581.769h10.15v10.054h-10.15v-10.054Z" fill="#facc15" fill-opacity="0.3"/><path d="M330.227,526.272h10.15v10.054h-10.15v-10.054Z" fill="#facc15" fill-opacity="0.3"/><path d="M330.786,554.58v8.936h9.031v-8.936h-9.031Z" fill="none" stroke="#fde047" stroke-width="1.1185" stroke-opacity="0.5"/><path d="M330.227,595.644h10.15v10.054h-10.15v-10.054Z" fill="#facc15" fill-opacity="0.3"/><path d="M305.424,595.644h10.15v10.054h-10.15v-10.054Z" fill="#facc15" fill-opacity="0.3"/><path d="M255.82,567.896h10.151v10.054h-10.151v-10.054Z" fill="#facc15" fill-opacity="0.3"/><path d="M243.418,595.644h10.15v10.054h-10.15v-10.054Z" fill="#facc15" fill-opacity="0.3"/><path d="M243.418,609.517h10.15v10.054h-10.15v-10.054Z" fill="#facc15" fill-opacity="0.3"/><path d="M231.018,554.021h10.15v10.054h-10.15v-10.054Z" fill="#facc15" fill-opacity="0.3"/><path d="M231.018,581.769h10.15v10.054h-10.15v-10.054Z" fill="#facc15" fill-opacity="0.3"/><path d="M218.617,595.643h10.151v10.054h-10.151v-10.054Z" fill="#facc15" fill-opacity="0.3"/><path d="M156.615,581.769h10.151v10.054h-10.151v-10.054Z" fill="#facc15" fill-opacity="0.3"/><path d="M119.412,567.896h10.15v10.054h-10.15v-10.054Z" fill="#facc15" fill-opacity="0.3"/><path d="M107.012,512.398h10.15v10.054h-10.15v-10.054Z" fill="#facc15" fill-opacity="0.3"/><path d="M94.6114,554.021h10.1506v10.054h-10.1506v-10.054Z" fill="#facc15" fill-opacity="0.3"/><path d="M57.4102,540.147h10.1503v10.054h-10.1503v-10.054Z" fill="#facc15" fill-opacity="0.3"/><path d="M20.2052,512.398h10.1503v10.054h-10.1503v-10.054Z" fill="#facc15" fill-opacity="0.3"/><path d="M7.80475,554.021h10.15035v10.054h-10.15035v-10.054Z" fill="#facc15" fill-opacity="0.3"/><path d="M7.80475,581.769h10.15035v10.054h-10.15035v-10.054Z" fill="#facc15" fill-opacity="0.3"/><path d="M-4.59564,526.272h10.15033v10.054h-10.15033v-10.054Z" fill="#facc15" fill-opacity="0.3"/><g mask="url(#e1MwTiEFtvN38)"><g><rect width="124.153" height="123.035" rx="0" ry="0" transform="translate(-30.9043 593.65)" fill="url(#e1MwTiEFtvN37-fill)"/></g><mask id="e1MwTiEFtvN38" mask-type="alpha" x="-150%" y="-150%" height="400%" width="400%"><path d="M44.6192,595.888h10.1503v10.054h-10.1503v-10.054Z" fill="#facc15"/><path d="M19.8165,595.888h10.1503v10.054h-10.1503v-10.054Z" fill="#facc15"/><path d="M19.8165,609.762h10.1503v10.054h-10.1503v-10.054Z" fill="#facc15"/><path d="M-4.98429,609.762h10.15031v10.054h-10.15031v-10.054Z" fill="#facc15"/></mask></g><path d="M877.099,554.181v8.935h9.031v-8.935h-9.031Z" fill="none" stroke="#f87171" stroke-width="1.1185"/><path d="M876.539,595.245h10.15v10.054h-10.15v-10.054Z" fill="#facc15" fill-opacity="0.3"/><path d="M864.139,581.37h10.15v10.054h-10.15v-10.054Z" fill="#facc15" fill-opacity="0.3"/><path d="M851.738,539.748h10.151v10.054h-10.151v-10.054Z" fill="#facc15" fill-opacity="0.3"/><path d="M851.738,595.245h10.151v10.054h-10.151v-10.054Z" fill="#facc15" fill-opacity="0.3"/><path d="M839.338,609.118h10.15v10.054h-10.15v-10.054Z" fill="#facc15" fill-opacity="0.3"/><path d="M826.938,581.37h10.15v10.054h-10.15v-10.054Z" fill="#facc15" fill-opacity="0.3"/><path d="M814.537,525.874h10.151v10.054h-10.151v-10.054Z" fill="#facc15" fill-opacity="0.3"/><path d="M814.537,553.621h10.151v10.054h-10.151v-10.054Z" fill="#facc15" fill-opacity="0.3"/><path d="M814.537,595.245h10.151v10.054h-10.151v-10.054Z" fill="#facc15" fill-opacity="0.3"/><path d="M789.734,595.245h10.151v10.054h-10.151v-10.054Z" fill="#facc15" fill-opacity="0.3"/><path d="M740.69,568.057v8.935h9.032v-8.935h-9.032Z" fill="none" stroke="#fde047" stroke-width="1.1185"/><path d="M727.729,595.245h10.15v10.054h-10.15v-10.054Z" fill="#facc15" fill-opacity="0.3"/><path d="M727.729,609.118h10.15v10.054h-10.15v-10.054Z" fill="#facc15" fill-opacity="0.3"/><path d="M715.328,553.621h10.151v10.054h-10.151v-10.054Z" fill="#facc15" fill-opacity="0.3"/><path d="M715.328,581.37h10.151v10.054h-10.151v-10.054Z" fill="#facc15" fill-opacity="0.3"/><path d="M579.481,554.181v8.935h9.032v-8.935h-9.032Z" fill="none" stroke="#fde047" stroke-width="1.1185"/><path d="M578.922,581.37h10.15v10.054h-10.15v-10.054Z" fill="#facc15" fill-opacity="0.3"/><path d="M554.121,595.245h10.15v10.054h-10.15v-10.054Z" fill="#facc15" fill-opacity="0.3"/><path d="M541.721,539.748h10.15v10.054h-10.15v-10.054Z" fill="#facc15" fill-opacity="0.3"/><path d="M541.721,595.245h10.15v10.054h-10.15v-10.054Z" fill="#facc15" fill-opacity="0.3"/><path d="M541.721,609.118h10.15v10.054h-10.15v-10.054Z" fill="#facc15" fill-opacity="0.3"/><path d="M529.316,609.118h10.151v10.054h-10.151v-10.054Z" fill="#facc15" fill-opacity="0.3"/><path d="M505.075,512.56v8.935h9.031v-8.935h-9.031Z" fill="none" stroke="#fde047" stroke-width="1.1185" stroke-opacity="0.5"/><path d="M504.514,595.245h10.15v10.054h-10.15v-10.054Z" fill="#facc15" fill-opacity="0.3"/><path d="M492.115,553.621h10.151v10.054h-10.151v-10.054Z" fill="#facc15" fill-opacity="0.3"/><path d="M492.115,581.37h10.151v10.054h-10.151v-10.054Z" fill="#facc15" fill-opacity="0.3"/><path d="M479.713,525.874h10.15v10.054h-10.15v-10.054Z" fill="#facc15" fill-opacity="0.3"/><path d="M480.272,595.805v8.935h9.032v-8.935h-9.032Z" fill="none" stroke="#fde047" stroke-width="1.1185"/><path d="M479.713,609.118h10.15v10.054h-10.15v-10.054Z" fill="#facc15" fill-opacity="0.3"/><path d="M467.313,539.748h10.15v10.054h-10.15v-10.054Z" fill="#facc15" fill-opacity="0.3"/><path d="M467.313,567.497h10.15v10.054h-10.15v-10.054Z" fill="#facc15" fill-opacity="0.3"/><path d="M454.912,581.37h10.15v10.054h-10.15v-10.054Z" fill="#facc15" fill-opacity="0.3"/><path d="M454.912,595.245h10.15v10.054h-10.15v-10.054Z" fill="#facc15" fill-opacity="0.3"/><path d="M442.512,581.37h10.15v10.054h-10.15v-10.054Z" fill="#facc15" fill-opacity="0.3"/><path d="M430.111,595.245h10.151v10.054h-10.151v-10.054Z" fill="#facc15" fill-opacity="0.3"/><path d="M430.111,609.118h10.151v10.054h-10.151v-10.054Z" fill="#facc15" fill-opacity="0.3"/><path d="M417.711,539.748h10.15v10.054h-10.15v-10.054Z" fill="#facc15" fill-opacity="0.3"/><path d="M1274.04,595.644h10.16v10.054h-10.16v-10.054Z" fill="#facc15" fill-opacity="0.3"/><path d="M1224.44,567.896h10.15v10.054h-10.15v-10.054Z" fill="#facc15" fill-opacity="0.3"/><path d="M1212.04,595.644h10.15v10.054h-10.15v-10.054Z" fill="#facc15" fill-opacity="0.3"/><path d="M1212.04,609.517h10.15v10.054h-10.15v-10.054Z" fill="#facc15" fill-opacity="0.3"/><path d="M1199.64,554.021h10.15v10.054h-10.15v-10.054Z" fill="#facc15" fill-opacity="0.3"/><path d="M1199.64,581.769h10.15v10.054h-10.15v-10.054Z" fill="#facc15" fill-opacity="0.3"/><path d="M1187.24,595.643h10.15v10.054h-10.15v-10.054Z" fill="#facc15" fill-opacity="0.3"/><path d="M1137.64,595.644h10.15v10.054h-10.15v-10.054Z" fill="#facc15" fill-opacity="0.3"/><path d="M1125.79,582.328v8.936h9.04v-8.936h-9.04Z" fill="none" stroke="#fde047" stroke-width="1.1185"/><path d="M1112.83,595.644h10.15v10.054h-10.15v-10.054Z" fill="#facc15" fill-opacity="0.3"/><path d="M1112.83,609.517h10.15v10.054h-10.15v-10.054Z" fill="#facc15" fill-opacity="0.3"/><path d="M1100.43,540.147h10.15v10.054h-10.15v-10.054Z" fill="#facc15" fill-opacity="0.3"/><path d="M1088.03,567.896h10.15v10.054h-10.15v-10.054Z" fill="#facc15" fill-opacity="0.3"/><path d="M1075.63,512.398h10.15v10.054h-10.15v-10.054Z" fill="#facc15" fill-opacity="0.3"/><path d="M1063.23,554.021h10.15v10.054h-10.15v-10.054Z" fill="#facc15" fill-opacity="0.3"/><path d="M1063.23,581.769h10.15v10.054h-10.15v-10.054Z" fill="#facc15" fill-opacity="0.3"/><path d="M1026.03,540.147h10.15v10.054h-10.15v-10.054Z" fill="#facc15" fill-opacity="0.3"/><path d="M989.386,512.958v8.936h9.031v-8.936h-9.031Z" fill="none" stroke="#fde047" stroke-width="1.1185"/><path d="M976.426,554.021h10.15v10.054h-10.15v-10.054Z" fill="#facc15" fill-opacity="0.3"/><path d="M976.426,581.769h10.15v10.054h-10.15v-10.054Z" fill="#facc15" fill-opacity="0.3"/><g mask="url(#e1MwTiEFtvN104)"><g><rect width="124.153" height="123.035" rx="0" ry="0" transform="translate(975.744 593.65)" fill="url(#e1MwTiEFtvN103-fill)"/></g><mask id="e1MwTiEFtvN104" mask-type="alpha" x="-150%" y="-150%" height="400%" width="400%"><path d="M1051.27,595.888h10.15v10.054h-10.15v-10.054Z" fill="#facc15"/><path d="M1026.46,595.888h10.16v10.054h-10.16v-10.054Z" fill="#facc15"/><path d="M1026.46,609.762h10.16v10.054h-10.16v-10.054Z" fill="#facc15"/><path d="M1001.66,609.762h10.15v10.054h-10.15v-10.054Z" fill="#facc15"/><path d="M989.264,609.762h10.15v10.054h-10.15v-10.054Z" fill="#facc15"/></mask></g><path d="M964.024,526.272h10.15v10.054h-10.15v-10.054Z" fill="#facc15" fill-opacity="0.3"/><path d="M964.583,596.203v8.936h9.031v-8.936h-9.031Z" fill="none" stroke="#fde047" stroke-width="1.1185" stroke-opacity="0.5"/><path d="M964.025,609.517h10.151v10.054h-10.151v-10.054Z" fill="#facc15" fill-opacity="0.3"/><path d="M951.623,540.147h10.15v10.054h-10.15v-10.054Z" fill="#facc15" fill-opacity="0.3"/><path d="M951.623,567.896h10.15v10.054h-10.15v-10.054Z" fill="#facc15" fill-opacity="0.3"/><path d="M939.223,581.769h10.15v10.054h-10.15v-10.054Z" fill="#facc15" fill-opacity="0.3"/><path d="M939.223,595.643h10.15v10.054h-10.15v-10.054Z" fill="#facc15" fill-opacity="0.3"/><path d="M926.822,581.769h10.151v10.054h-10.151v-10.054Z" fill="#facc15" fill-opacity="0.3"/><path d="M914.422,595.644h10.15v10.054h-10.15v-10.054Z" fill="#facc15" fill-opacity="0.3"/><path d="M914.422,609.517h10.15v10.054h-10.15v-10.054Z" fill="#facc15" fill-opacity="0.3"/><path d="M902.022,540.147h10.15v10.054h-10.15v-10.054Z" fill="#facc15" fill-opacity="0.3"/><g opacity="0.5"><path d="M439.984,584.852c.746.431.746,1.507,0,1.937l-3.355,1.938c-.746.43-1.678-.108-1.678-.969v-3.875c0-.861.932-1.399,1.678-.968l3.355,1.937Z" fill="#fde047"/><path d="M401.955,589.176l5.593-7.27l9.507,3.915h18.455" fill="none" stroke="#fde047" stroke-width="2.237"/></g><g mask="url(#e1MwTiEFtvN127)"><g><rect width="124.153" height="123.035" rx="0" ry="0" transform="translate(93.248 593.65)" fill="url(#e1MwTiEFtvN126-fill)"/></g><mask id="e1MwTiEFtvN127" mask-type="alpha" x="-150%" y="-150%" height="400%" width="400%"><path d="M168.772,595.888h10.15v10.054h-10.15v-10.054Z" fill="#facc15"/><path d="M143.969,595.888h10.15v10.054h-10.15v-10.054Z" fill="#facc15"/><path d="M143.969,609.762h10.15v10.054h-10.15v-10.054Z" fill="#facc15"/><path d="M119.168,609.762h10.15v10.054h-10.15v-10.054Z" fill="#facc15"/><path d="M106.768,609.762h10.15v10.054h-10.15v-10.054Z" fill="#facc15"/></mask></g><g mask="url(#e1MwTiEFtvN136)"><g><rect width="124.153" height="123.035" rx="0" ry="0" transform="translate(590.982 497.46)" fill="url(#e1MwTiEFtvN135-fill)"/></g><mask id="e1MwTiEFtvN136" mask-type="alpha" x="-150%" y="-150%" height="400%" width="400%"><path d="M702.928,595.245h10.15v10.054h-10.15v-10.054Z" fill="#facc15"/><path d="M653.326,595.245h10.151v10.054h-10.151v-10.054Z" fill="#facc15"/><path d="M640.926,581.37h10.15v10.054h-10.15v-10.054Z" fill="#facc15"/><path d="M628.525,595.245h10.151v10.054h-10.151v-10.054Z" fill="#facc15"/><path d="M628.524,609.118h10.15v10.054h-10.15v-10.054Z" fill="#facc15"/><path d="M616.123,539.748h10.15v10.054h-10.15v-10.054Z" fill="#facc15"/><path d="M603.723,567.497h10.15v10.054h-10.15v-10.054Z" fill="#facc15"/><path d="M603.723,609.118h10.15v10.054h-10.15v-10.054Z" fill="#facc15"/><path d="M591.322,512h10.151v10.054h-10.151v-10.054Z" fill="#facc15"/><path d="M591.322,609.118h10.151v10.054h-10.151v-10.054Z" fill="#facc15"/></mask></g><path d="M95.1709,582.328v8.936h9.0311v-8.936h-9.0311Z" fill="none" stroke="#fde047" stroke-width="1.1185"/><path d="M27.2578,621.612l29.6403-19.014h71.0249l17.896,19.014h32.996l26.844-19.014h52.01" fill="none" stroke="url(#e1MwTiEFtvN148-stroke)" stroke-width="2.237"/><path d="M260.465,601.629c.745.431.745,1.507,0,1.938l-3.356,1.937c-.745.43-1.677-.108-1.677-.969v-3.874c0-.861.932-1.399,1.677-.969l3.356,1.937Z" fill="#fde047"/><path d="M132.372,540.706v8.936h9.031v-8.936h-9.031Z" fill="none" stroke="#f87171" stroke-width="1.1185"/><path d="M20.2052,595.643h10.1503v10.054h-10.1503v-10.054Z" fill="#facc15" fill-opacity="0.8"/><path d="M-79,577.991l29.6402-19.014h71.0248l17.896,19.014h32.9957l26.844-19.014h52.0103" fill="none" stroke="url(#e1MwTiEFtvN152-stroke)" stroke-width="2.237"/><path d="M154.207,558.008c.746.431.746,1.507,0,1.938l-3.355,1.937c-.746.43-1.678-.108-1.678-.969v-3.874c0-.861.932-1.4,1.678-.969l3.355,1.937Z" fill="#fde047"/><g opacity="0.5"><path d="M95.4863,516.624c.7457.43.7457,1.506,0,1.937l-3.3555,1.937c-.7457.431-1.6777-.108-1.6777-.969v-3.874c0-.861.932-1.399,1.6777-.969l3.3555,1.938Z" fill="#fde047"/><path d="M57.457,520.948l5.5925-7.27l9.5073,3.914h18.4552" fill="none" stroke="#fde047" stroke-width="2.237"/></g><path d="M922.771,320.909h-10.15v-10.054h10.15v10.054Z" fill="#facc15" fill-opacity="0.3"/><path d="M922.771,279.286h-10.15v-10.054h10.15v10.054Z" fill="#facc15" fill-opacity="0.3"/><path d="M934.612,292.602v-8.936h-9.031v8.936h9.031Z" fill="none" stroke="#f87171" stroke-width="1.1185"/><path d="M947.572,334.782h-10.15v-10.054h10.15v10.054Z" fill="#facc15" fill-opacity="0.3"/><path d="M947.572,279.286h-10.15v-10.054h10.15v10.054Z" fill="#ef4444" fill-opacity="0.5"/><path d="M959.973,265.413h-10.151v-10.054h10.151v10.054Z" fill="#facc15" fill-opacity="0.3"/><path d="M972.373,293.161h-10.15v-10.054h10.15v10.054Z" fill="#facc15" fill-opacity="0.3"/><path d="M984.773,348.657h-10.15v-10.054h10.15v10.054Z" fill="#facc15" fill-opacity="0.3"/><path d="M984.214,320.35v-8.936h-9.031v8.936h9.031Z" fill="none" stroke="#fde047" stroke-width="1.1185" stroke-opacity="0.5"/><path d="M984.773,279.286h-10.15v-10.054h10.15v10.054Z" fill="#facc15" fill-opacity="0.3"/><path d="M1009.58,279.286h-10.154v-10.054h10.154v10.054Z" fill="#facc15" fill-opacity="0.3"/><path d="M1059.18,307.034h-10.15v-10.054h10.15v10.054Z" fill="#facc15" fill-opacity="0.3"/><path d="M1071.58,279.286h-10.15v-10.054h10.15v10.054Z" fill="#facc15" fill-opacity="0.3"/><path d="M1071.58,265.413h-10.15v-10.054h10.15v10.054Z" fill="#facc15" fill-opacity="0.3"/><path d="M1083.98,320.909h-10.15v-10.054h10.15v10.054Z" fill="#facc15" fill-opacity="0.3"/><path d="M1083.98,293.161h-10.15v-10.054h10.15v10.054Z" fill="#facc15" fill-opacity="0.3"/><path d="M1096.38,279.286h-10.15v-10.054h10.15v10.054Z" fill="#facc15" fill-opacity="0.3"/><path d="M1158.38,293.161h-10.15v-10.054h10.15v10.054Z" fill="#facc15" fill-opacity="0.3"/><path d="M1195.59,307.034h-10.15v-10.054h10.15v10.054Z" fill="#facc15" fill-opacity="0.3"/><path d="M1207.99,362.531h-10.15v-10.054h10.15v10.054Z" fill="#facc15" fill-opacity="0.3"/><path d="M1220.39,320.909h-10.15v-10.054h10.15v10.054Z" fill="#facc15" fill-opacity="0.3"/><path d="M1257.59,334.782h-10.15v-10.054h10.15v10.054Z" fill="#facc15" fill-opacity="0.3"/><g mask="url(#e1MwTiEFtvN182)"><g><rect width="124.153" height="123.035" rx="0" ry="0" transform="matrix(-1 0 0-1 1345.9 281.279)" fill="url(#e1MwTiEFtvN181-fill)"/></g><mask id="e1MwTiEFtvN182" mask-type="alpha" x="-150%" y="-150%" height="400%" width="400%"><path d="M1270.38,279.042h-10.15v-10.054h10.15v10.054Z" fill="#facc15"/></mask></g><path d="M437.901,320.749v-8.936h-9.031v8.936h9.031Z" fill="none" stroke="#f87171" stroke-width="1.1185"/><path d="M438.461,279.685h-10.15v-10.054h10.15v10.054Z" fill="#facc15" fill-opacity="0.3"/><path d="M450.861,293.56h-10.15v-10.054h10.15v10.054Z" fill="#facc15" fill-opacity="0.3"/><path d="M463.262,335.182h-10.151v-10.054h10.151v10.054Z" fill="#facc15" fill-opacity="0.3"/><path d="M463.262,279.685h-10.151v-10.054h10.151v10.054Z" fill="#facc15" fill-opacity="0.3"/><path d="M475.662,265.812h-10.15v-10.055h10.15v10.055Z" fill="#facc15" fill-opacity="0.3"/><path d="M488.062,293.56h-10.15v-10.054h10.15v10.054Z" fill="#facc15" fill-opacity="0.3"/><path d="M500.463,349.056h-10.151v-10.054h10.151v10.054Z" fill="#facc15" fill-opacity="0.3"/><path d="M500.463,321.309h-10.151v-10.054h10.151v10.054Z" fill="#facc15" fill-opacity="0.3"/><path d="M500.463,279.685h-10.151v-10.054h10.151v10.054Z" fill="#facc15" fill-opacity="0.3"/><path d="M525.266,279.685h-10.151v-10.054h10.151v10.054Z" fill="#facc15" fill-opacity="0.3"/><path d="M574.31,306.873v-8.935h-9.032v8.935h9.032Z" fill="none" stroke="#fde047" stroke-width="1.1185"/><path d="M587.271,279.685h-10.15v-10.054h10.15v10.054Z" fill="#facc15" fill-opacity="0.3"/><path d="M587.271,265.812h-10.15v-10.055h10.15v10.055Z" fill="#facc15" fill-opacity="0.3"/><path d="M599.672,321.309h-10.151v-10.054h10.151v10.054Z" fill="#facc15" fill-opacity="0.3"/><path d="M599.672,293.56h-10.151v-10.054h10.151v10.054Z" fill="#facc15" fill-opacity="0.3"/><path d="M735.519,320.749v-8.936h-9.032v8.936h9.032Z" fill="none" stroke="#fde047" stroke-width="1.1185"/><path d="M736.078,293.56h-10.15v-10.054h10.15v10.054Z" fill="#facc15" fill-opacity="0.3"/><path d="M760.879,279.685h-10.15v-10.054h10.15v10.054Z" fill="#facc15" fill-opacity="0.3"/><path d="M773.279,335.182h-10.15v-10.054h10.15v10.054Z" fill="#facc15" fill-opacity="0.3"/><path d="M773.279,279.685h-10.15v-10.054h10.15v10.054Z" fill="#facc15" fill-opacity="0.3"/><path d="M773.279,265.812h-10.15v-10.055h10.15v10.055Z" fill="#facc15" fill-opacity="0.3"/><path d="M785.684,265.812h-10.151v-10.055h10.151v10.055Z" fill="#facc15" fill-opacity="0.3"/><path d="M809.925,362.37v-8.935h-9.031v8.935h9.031Z" fill="none" stroke="#fde047" stroke-width="1.1185" stroke-opacity="0.5"/><path d="M810.486,279.685h-10.15v-10.054h10.15v10.054Z" fill="#facc15" fill-opacity="0.3"/><path d="M822.885,321.309h-10.151v-10.054h10.151v10.054Z" fill="#facc15" fill-opacity="0.3"/><path d="M822.885,293.56h-10.151v-10.054h10.151v10.054Z" fill="#facc15" fill-opacity="0.3"/><path d="M835.287,349.056h-10.15v-10.054h10.15v10.054Z" fill="#facc15" fill-opacity="0.3"/><path d="M834.728,279.125v-8.936h-9.032v8.936h9.032Z" fill="none" stroke="#fde047" stroke-width="1.1185"/><path d="M835.287,265.812h-10.15v-10.055h10.15v10.055Z" fill="#facc15" fill-opacity="0.3"/><path d="M847.687,335.182h-10.15v-10.054h10.15v10.054Z" fill="#facc15" fill-opacity="0.3"/><path d="M847.687,307.433h-10.15v-10.054h10.15v10.054Z" fill="#facc15" fill-opacity="0.3"/><path d="M860.088,293.56h-10.15v-10.054h10.15v10.054Z" fill="#facc15" fill-opacity="0.3"/><path d="M860.088,279.685h-10.15v-10.054h10.15v10.054Z" fill="#facc15" fill-opacity="0.3"/><path d="M872.488,293.56h-10.15v-10.054h10.15v10.054Z" fill="#facc15" fill-opacity="0.3"/><path d="M884.889,279.685h-10.151v-10.054h10.151v10.054Z" fill="#facc15" fill-opacity="0.3"/><path d="M884.889,265.812h-10.151v-10.055h10.151v10.055Z" fill="#facc15" fill-opacity="0.3"/><path d="M897.289,335.182h-10.15v-10.054h10.15v10.054Z" fill="#facc15" fill-opacity="0.3"/><path d="M3.19238,292.602v-8.936h-9.03125v8.936h9.03125Z" fill="none" stroke="#fde047" stroke-width="1.1185"/><path d="M15.5928,348.098v-8.936h-9.03128v8.936h9.03128Z" fill="none" stroke="#f87171" stroke-width="1.1185"/><path d="M16.1523,320.909h-10.15035v-10.054h10.15035v10.054Z" fill="#facc15" fill-opacity="0.3"/><path d="M15.5928,278.727v-8.936h-9.03128v8.936h9.03128Z" fill="none" stroke="#fde047" stroke-width="1.1185" stroke-opacity="0.5"/><path d="M40.955,279.286h-10.1503v-10.054h10.1503v10.054Z" fill="#facc15" fill-opacity="0.3"/><path d="M90.5605,307.034h-10.1503v-10.054h10.1503v10.054Z" fill="#facc15" fill-opacity="0.3"/><path d="M102.961,279.286h-10.1505v-10.054h10.1505v10.054Z" fill="#facc15" fill-opacity="0.3"/><path d="M102.961,265.413h-10.1505v-10.054h10.1505v10.054Z" fill="#facc15" fill-opacity="0.3"/><path d="M115.361,320.909h-10.15v-10.054h10.15v10.054Z" fill="#facc15" fill-opacity="0.3"/><path d="M115.361,293.161h-10.15v-10.054h10.15v10.054Z" fill="#facc15" fill-opacity="0.3"/><path d="M127.762,279.286h-10.151v-10.054h10.151v10.054Z" fill="#facc15" fill-opacity="0.3"/><path d="M177.363,279.286h-10.15v-10.054h10.15v10.054Z" fill="#facc15" fill-opacity="0.3"/><path d="M189.206,292.602v-8.936h-9.031v8.936h9.031Z" fill="none" stroke="#fde047" stroke-width="1.1185"/><path d="M202.166,279.286h-10.15v-10.054h10.15v10.054Z" fill="#facc15" fill-opacity="0.3"/><path d="M202.166,265.413h-10.15v-10.054h10.15v10.054Z" fill="#facc15" fill-opacity="0.3"/><path d="M214.566,334.782h-10.15v-10.054h10.15v10.054Z" fill="#facc15" fill-opacity="0.3"/><path d="M226.967,307.034h-10.151v-10.054h10.151v10.054Z" fill="#facc15" fill-opacity="0.3"/><path d="M239.367,362.531h-10.15v-10.054h10.15v10.054Z" fill="#facc15" fill-opacity="0.3"/><path d="M251.768,320.909h-10.151v-10.054h10.151v10.054Z" fill="#facc15" fill-opacity="0.3"/><path d="M251.768,293.161h-10.151v-10.054h10.151v10.054Z" fill="#facc15" fill-opacity="0.3"/><path d="M288.971,334.782h-10.151v-10.054h10.151v10.054Z" fill="#facc15" fill-opacity="0.3"/><path d="M325.614,361.972v-8.936h-9.031v8.936h9.031Z" fill="none" stroke="#fde047" stroke-width="1.1185"/><path d="M338.574,320.909h-10.15v-10.054h10.15v10.054Z" fill="#facc15" fill-opacity="0.3"/><path d="M338.574,293.161h-10.15v-10.054h10.15v10.054Z" fill="#facc15" fill-opacity="0.3"/><g mask="url(#e1MwTiEFtvN249)"><g><rect width="124.153" height="123.035" rx="0" ry="0" transform="matrix(-1 0 0-1 339.256 281.279)" fill="url(#e1MwTiEFtvN248-fill)"/></g><mask id="e1MwTiEFtvN249" mask-type="alpha" x="-150%" y="-150%" height="400%" width="400%"><path d="M263.732,279.042h-10.15v-10.054h10.15v10.054Z" fill="#facc15"/><path d="M288.535,279.042h-10.15v-10.054h10.15v10.054Z" fill="#facc15"/><path d="M288.535,265.168h-10.15v-10.054h10.15v10.054Z" fill="#facc15"/><path d="M313.336,265.168h-10.15v-10.054h10.15v10.054Z" fill="#facc15"/><path d="M325.736,265.168h-10.15v-10.054h10.15v10.054Z" fill="#facc15"/></mask></g><path d="M350.976,348.657h-10.15v-10.054h10.15v10.054Z" fill="#facc15" fill-opacity="0.3"/><path d="M350.417,278.727v-8.936h-9.031v8.936h9.031Z" fill="none" stroke="#fde047" stroke-width="1.1185" stroke-opacity="0.5"/><path d="M350.975,265.413h-10.151v-10.054h10.151v10.054Z" fill="#facc15" fill-opacity="0.3"/><path d="M363.377,334.782h-10.15v-10.054h10.15v10.054Z" fill="#facc15" fill-opacity="0.3"/><path d="M363.377,307.034h-10.15v-10.054h10.15v10.054Z" fill="#facc15" fill-opacity="0.3"/><path d="M375.777,293.161h-10.15v-10.054h10.15v10.054Z" fill="#facc15" fill-opacity="0.3"/><path d="M375.777,279.286h-10.15v-10.054h10.15v10.054Z" fill="#facc15" fill-opacity="0.3"/><path d="M388.178,293.161h-10.151v-10.054h10.151v10.054Z" fill="#facc15" fill-opacity="0.3"/><path d="M400.578,279.286h-10.15v-10.054h10.15v10.054Z" fill="#facc15" fill-opacity="0.3"/><path d="M400.578,265.413h-10.15v-10.054h10.15v10.054Z" fill="#facc15" fill-opacity="0.3"/><path d="M412.978,334.782h-10.15v-10.054h10.15v10.054Z" fill="#facc15" fill-opacity="0.3"/><g opacity="0.5"><path d="M875.016,290.078c-.746-.431-.746-1.507,0-1.938l3.355-1.937c.746-.43,1.678.108,1.678.969v3.874c0,.861-.932,1.399-1.678.969l-3.355-1.937Z" fill="#fde047"/><path d="M913.045,285.753l-5.593,7.27-9.507-3.914h-18.455" fill="none" stroke="#fde047" stroke-width="2.237"/></g><g mask="url(#e1MwTiEFtvN272)"><g><rect width="124.153" height="123.035" rx="0" ry="0" transform="matrix(-1 0 0-1 1221.75 281.279)" fill="url(#e1MwTiEFtvN271-fill)"/></g><mask id="e1MwTiEFtvN272" mask-type="alpha" x="-150%" y="-150%" height="400%" width="400%"><path d="M1146.23,279.042h-10.15v-10.054h10.15v10.054Z" fill="#facc15"/><path d="M1171.03,279.042h-10.15v-10.054h10.15v10.054Z" fill="#facc15"/><path d="M1171.03,265.168h-10.15v-10.054h10.15v10.054Z" fill="#facc15"/><path d="M1195.83,265.168h-10.15v-10.054h10.15v10.054Z" fill="#facc15"/><path d="M1208.23,265.168h-10.15v-10.054h10.15v10.054Z" fill="#facc15"/></mask></g><g mask="url(#e1MwTiEFtvN281)"><g><rect width="124.153" height="123.035" rx="0" ry="0" transform="matrix(-1 0 0-1 724.022 377.47)" fill="url(#e1MwTiEFtvN280-fill)"/></g><mask id="e1MwTiEFtvN281" mask-type="alpha" x="-150%" y="-150%" height="400%" width="400%"><path d="M612.072,279.685h-10.15v-10.054h10.15v10.054Z" fill="#facc15"/><path d="M661.674,279.685h-10.151v-10.054h10.151v10.054Z" fill="#facc15"/><path d="M674.074,293.56h-10.15v-10.054h10.15v10.054Z" fill="#facc15"/><path d="M686.475,279.685h-10.151v-10.054h10.151v10.054Z" fill="#facc15"/><path d="M686.476,265.812h-10.15v-10.055h10.15v10.055Z" fill="#facc15"/><path d="M698.877,335.182h-10.15v-10.054h10.15v10.054Z" fill="#facc15"/><path d="M711.277,307.433h-10.15v-10.054h10.15v10.054Z" fill="#facc15"/><path d="M711.277,265.812h-10.15v-10.055h10.15v10.055Z" fill="#facc15"/><path d="M723.678,362.93h-10.151v-10.054h10.151v10.054Z" fill="#facc15"/><path d="M723.678,265.811h-10.151v-10.054h10.151v10.054Z" fill="#facc15"/></mask></g><path d="M1219.83,292.602v-8.936h-9.03v8.936h9.03Z" fill="none" stroke="#fde047" stroke-width="1.1185"/><path d="M1287.74,253.318l-29.64,19.014h-71.02l-17.9-19.014h-32.99l-26.85,19.014h-52.01" fill="none" stroke="url(#e1MwTiEFtvN293-stroke)" stroke-width="2.237"/><path d="M1054.54,273.3c-.75-.43-.75-1.506,0-1.937l3.35-1.937c.75-.431,1.68.107,1.68.968v3.875c0,.861-.93,1.399-1.68.969l-3.35-1.938Z" fill="#fde047"/><path d="M1182.63,334.224v-8.936h-9.03v8.936h9.03Z" fill="none" stroke="#f87171" stroke-width="1.1185"/><path d="M1394,296.939l-29.64,19.014h-71.02l-17.9-19.014h-33l-26.84,19.014h-52.01" fill="none" stroke="url(#e1MwTiEFtvN296-stroke)" stroke-width="2.237"/><path d="M1160.79,316.921c-.74-.43-.74-1.506,0-1.937l3.36-1.937c.74-.431,1.68.107,1.68.968v3.875c0,.861-.94,1.399-1.68.969l-3.36-1.938Z" fill="#fde047"/><g opacity="0.5"><path d="M1219.51,358.306c-.74-.43-.74-1.507,0-1.937l3.36-1.937c.74-.431,1.68.107,1.68.968v3.875c0,.861-.94,1.399-1.68.968l-3.36-1.937Z" fill="#fde047"/><path d="M1257.54,353.982l-5.59,7.27-9.51-3.915h-18.45" fill="none" stroke="#fde047" stroke-width="2.237"/></g></g><clipPath id="e1MwTiEFtvN301"><rect width="1293" height="366" rx="0" ry="0" transform="translate(-5 255)" fill="#fff"/></clipPath></g><g opacity="0.5" filter="url(#e1MwTiEFtvN303-filter)"><path d="M323.492,792.746C323.492,886.771,268.024,841,174,841c-94.0244,0-409,64.524-409-29.5s547.476-565.5,641.5-565.5-83.008,452.722-83.008,546.746Z" fill="#facc15"/></g></g><clipPath id="e1MwTiEFtvN305"><path d="M0,286c0-15.464,12.536-28,28-28h1226c15.46,0,28,12.536,28,28v304c0,15.464-12.54,28-28,28h-1226c-15.464,0-28-12.536-28-28v-304Z" fill="#fff"/></clipPath></g><path d="M28,258.5h1226c15.19,0,27.5,12.312,27.5,27.5v304c0,15.188-12.31,27.5-27.5,27.5h-1226c-15.1878,0-27.5-12.312-27.5-27.5v-304c.000005-15.188,12.3122-27.5,27.5-27.5Z" transform="translate(126-158.243988)" fill="none" stroke="url(#e1MwTiEFtvN307-stroke)" stroke-opacity="0.3"/></svg>
