<svg width="32" height="32" viewBox="0 0 32 32" fill="none" xmlns="http://www.w3.org/2000/svg">
<g clip-path="url(#clip0_7615_44267)">
<path d="M17.1148 0.037346C14.8289 -0.122599 12.5353 0.21034 10.3892 1.01364C8.24311 1.81693 6.29459 3.07184 4.67552 4.69345C3.05644 6.31505 1.80457 8.26552 1.00463 10.4129C0.204681 12.5602 -0.124679 14.8543 0.0388335 17.14C0.626833 25.6107 8.1095 32 17.4442 32H25.3335C27.101 31.9979 28.7954 31.2948 30.0452 30.0451C31.295 28.7953 31.9981 27.1008 32.0002 25.3333V16.4533C32.0499 12.3433 30.543 8.36654 27.7819 5.32157C25.0209 2.27661 21.2101 0.388863 17.1148 0.037346ZM16.0002 6.66668C16.5306 6.66668 17.0393 6.87739 17.4144 7.25247C17.7895 7.62754 18.0002 8.13625 18.0002 8.66668C18.0002 9.19711 17.7895 9.70582 17.4144 10.0809C17.0393 10.456 16.5306 10.6667 16.0002 10.6667C15.4697 10.6667 14.961 10.456 14.586 10.0809C14.2109 9.70582 14.0002 9.19711 14.0002 8.66668C14.0002 8.13625 14.2109 7.62754 14.586 7.25247C14.961 6.87739 15.4697 6.66668 16.0002 6.66668ZM18.6668 24C18.6668 24.3536 18.5264 24.6928 18.2763 24.9428C18.0263 25.1929 17.6871 25.3333 17.3335 25.3333C16.9799 25.3333 16.6407 25.1929 16.3907 24.9428C16.1406 24.6928 16.0002 24.3536 16.0002 24V16H14.6668C14.3132 16 13.9741 15.8595 13.724 15.6095C13.474 15.3594 13.3335 15.0203 13.3335 14.6667C13.3335 14.3131 13.474 13.9739 13.724 13.7239C13.9741 13.4738 14.3132 13.3333 14.6668 13.3333H16.0002C16.7074 13.3333 17.3857 13.6143 17.8858 14.1144C18.3859 14.6145 18.6668 15.2928 18.6668 16V24Z" fill="#FACC15"/>
</g>
<defs>
<clipPath id="clip0_7615_44267">
<rect width="32" height="32" fill="white"/>
</clipPath>
</defs>
</svg>
