<svg width="32" height="32" viewBox="0 0 32 32" fill="none" xmlns="http://www.w3.org/2000/svg">
<g clip-path="url(#clip0_7615_44255)">
<path d="M-0.00013151 6C-0.00013151 2.68667 5.07454 0 11.3332 0C17.5919 0 22.6665 2.68667 22.6665 6C22.6665 9.31333 17.5919 12 11.3332 12C5.07454 12 -0.00013151 9.31333 -0.00013151 6ZM12.0079 27.98C11.7825 27.9853 11.5625 28 11.3332 28C6.55987 28 2.5012 26.8813 -0.00013151 25.1013V26.3813C-0.00013151 30.0707 5.7012 32 11.3332 32C11.7172 32 12.1012 31.9893 12.4839 31.9707C12.2732 30.456 12.0519 29.8787 12.0079 27.98ZM31.6092 29.724L22.0932 20.208C24.4745 18.176 26.9492 17.2053 28.9572 16.2853C29.6999 15.764 29.2865 14.6693 28.3799 14.6693C26.2025 14.6693 22.8999 14.36 19.2799 17.396L18.2745 16.3907C17.7532 15.8693 16.9105 15.8693 16.3892 16.3907C15.8679 16.912 15.8679 17.7547 16.3892 18.276L17.3945 19.2813C14.3665 22.8973 14.6719 26.196 14.6759 28.372C14.6772 29.2787 15.7719 29.692 16.2919 28.9493C17.2105 26.944 18.1799 24.472 20.2065 22.0947L29.7212 31.6093C30.2425 32.1307 31.0852 32.1307 31.6065 31.6093C32.1279 31.088 32.1279 30.2453 31.6065 29.724H31.6092ZM-0.00013151 18.4347V20.7547C-0.00013151 22.916 4.84654 25.3333 11.3332 25.3333C11.6159 25.3333 11.8905 25.3227 12.1665 25.3147C12.3292 24.0813 12.6492 22.6933 13.2199 21.2707C12.6039 21.3107 11.9759 21.3347 11.3319 21.3347C6.55854 21.3347 2.49987 20.216 -0.00146484 18.436L-0.00013151 18.4347ZM11.3332 14.6667C6.55987 14.6667 2.5012 13.548 -0.00013151 11.768V14.088C-0.00013151 16.2493 4.84654 18.6667 11.3332 18.6667C12.0972 18.6667 12.8345 18.6307 13.5479 18.568C13.4199 18.1773 13.3332 17.7667 13.3332 17.3333C13.3332 16.2173 13.7919 15.2107 14.5279 14.4853C13.5065 14.6 12.4412 14.6667 11.3332 14.6667Z" fill="#FACC15"/>
</g>
<defs>
<clipPath id="clip0_7615_44255">
<rect width="32" height="32" fill="white"/>
</clipPath>
</defs>
</svg>
