<svg width="32" height="32" viewBox="0 0 32 32" fill="none" xmlns="http://www.w3.org/2000/svg">
<g clip-path="url(#clip0_7615_44249)">
<path d="M25.3333 0H6.66667C2.99067 0 0 2.99067 0 6.66667V25.3333C0 29.0093 2.99067 32 6.66667 32H25.3333C29.0093 32 32 29.0093 32 25.3333V6.66667C32 2.99067 29.0093 0 25.3333 0ZM25.3333 26.6667H12C11.264 26.6667 10.6667 26.0693 10.6667 25.3333C10.6667 24.5973 11.264 24 12 24H25.3333C26.0693 24 26.6667 24.5973 26.6667 25.3333C26.6667 26.0693 26.0693 26.6667 25.3333 26.6667ZM27.6093 14.5267C27.3493 14.7867 27.008 14.9173 26.6667 14.9173C26.3253 14.9173 25.984 14.7867 25.724 14.5267L24 12.8027V20C24 20.736 23.4027 21.3333 22.6667 21.3333C21.9307 21.3333 21.3333 20.736 21.3333 20V12.8027L19.6093 14.5267C19.3493 14.7867 19.008 14.9173 18.6667 14.9173C18.3253 14.9173 17.984 14.7867 17.724 14.5267L16 12.8027V20C16 20.736 15.4027 21.3333 14.6667 21.3333C13.9307 21.3333 13.3333 20.736 13.3333 20V12.8027L11.6093 14.5267C11.088 15.048 10.2453 15.048 9.724 14.5267C9.20267 14.0053 9.20267 13.1627 9.724 12.6413L11.876 10.4893C13.4147 8.95067 15.9187 8.95067 17.4587 10.4893L18.668 11.6987L19.8773 10.4893C21.416 8.95067 23.92 8.95067 25.46 10.4893L27.612 12.6413C28.1333 13.1627 28.1333 14.0053 27.612 14.5267H27.6093Z" fill="#FACC15"/>
</g>
<defs>
<clipPath id="clip0_7615_44249">
<rect width="32" height="32" fill="white"/>
</clipPath>
</defs>
</svg>
