<svg width="30" height="32" viewBox="0 0 30 32" fill="none" xmlns="http://www.w3.org/2000/svg">
<path d="M27.3996 18.5067L26.7996 18.16C26.9329 17.44 26.9996 16.7067 26.9996 15.9867C26.9996 15.2667 26.9329 14.5467 26.7996 13.8133L27.3996 13.4667C29.3062 12.3733 29.9729 9.92 28.8796 8C28.3462 7.08 27.4796 6.41333 26.4529 6.13333C25.4262 5.85333 24.3462 6 23.4129 6.53333L22.8129 6.88C21.6929 5.92 20.3996 5.17333 18.9996 4.68V3.98666C18.9996 1.78666 17.1996 -0.0133362 14.9996 -0.0133362C12.7996 -0.0133362 10.9996 1.78666 10.9996 3.98666V4.68C9.59957 5.17333 8.30624 5.92 7.18624 6.88L6.58624 6.53333C5.66624 6 4.58624 5.86666 3.54624 6.13333C2.51957 6.41333 1.6529 7.08 1.11957 8C0.0262372 9.90666 0.679571 12.36 2.58624 13.4667L3.18624 13.8133C3.0529 14.5333 2.98624 15.2667 2.98624 15.9867C2.98624 16.7067 3.0529 17.4267 3.18624 18.16L2.58624 18.5067C0.679571 19.6 0.0129039 22.0533 1.10624 23.9733C1.63957 24.8933 2.50624 25.56 3.5329 25.84C4.55957 26.12 5.63957 25.9733 6.5729 25.44L7.1729 25.0933C8.2929 26.0533 9.58624 26.8 10.9862 27.2933V27.9867C10.9862 30.1867 12.7862 31.9867 14.9862 31.9867C17.1862 31.9867 18.9862 30.1867 18.9862 27.9867V27.2933C20.3862 26.8 21.6796 26.0533 22.7996 25.0933L23.3996 25.44C24.3196 25.9733 25.3996 26.12 26.4396 25.84C27.4662 25.56 28.3329 24.8933 28.8662 23.9733C29.9596 22.0667 29.3062 19.6133 27.3996 18.5067ZM11.2796 17.6533C11.7996 18.1733 11.7996 19.0133 11.2796 19.5333C11.0129 19.8 10.6796 19.92 10.3329 19.92C9.98624 19.92 9.6529 19.7867 9.38624 19.5333L7.7729 17.92C6.7329 16.88 6.7329 15.2 7.7729 14.1733L9.38624 12.56C9.90624 12.04 10.7462 12.04 11.2662 12.56C11.7862 13.08 11.7862 13.92 11.2662 14.44L9.6529 16.0533L11.2662 17.64L11.2796 17.6533ZM17.3729 10.92L15.2396 21.5867C15.1196 22.2267 14.5596 22.6533 13.9329 22.6533C13.8529 22.6533 13.7596 22.6533 13.6662 22.6267C12.9462 22.48 12.4796 21.7867 12.6262 21.0533L14.7596 10.3867C14.9062 9.66666 15.5996 9.2 16.3329 9.34666C17.0529 9.49333 17.5196 10.1867 17.3729 10.92ZM22.2262 17.92L20.6129 19.5333C20.3462 19.8 20.0129 19.92 19.6662 19.92C19.3196 19.92 18.9862 19.7867 18.7196 19.5333C18.1996 19.0133 18.1996 18.1733 18.7196 17.6533L20.3329 16.04L18.7196 14.44C18.1996 13.92 18.1996 13.08 18.7196 12.56C19.2396 12.04 20.0796 12.04 20.5996 12.56L22.2129 14.1733C23.2529 15.2133 23.2529 16.8933 22.2129 17.92H22.2262Z" fill="#FACC15"/>
</svg>
