<svg width="64" height="109" viewBox="0 0 64 109" fill="none" xmlns="http://www.w3.org/2000/svg">
<g clip-path="url(#clip0_7615_13522)">
<path d="M26.9688 66.4219H24.625C22.3632 66.4219 20.5234 68.2616 20.5234 70.5234V79.8984C20.5234 82.1602 22.3632 84 24.625 84H26.9688C29.2306 84 31.0703 82.1602 31.0703 79.8984V70.5234C31.0703 68.2616 29.2306 66.4219 26.9688 66.4219ZM27.5547 79.8984C27.5547 80.2216 27.2919 80.4844 26.9688 80.4844H24.625C24.3018 80.4844 24.0391 80.2216 24.0391 79.8984V70.5234C24.0391 70.2003 24.3018 69.9375 24.625 69.9375H26.9688C27.2919 69.9375 27.5547 70.2003 27.5547 70.5234V79.8984Z" fill="#FCD34D" fill-opacity="0.3"/>
<path d="M12.9062 80.4844H11.1484V68.1797C11.1484 67.2088 10.3615 66.4219 9.39062 66.4219H5.875C4.90408 66.4219 4.11719 67.2088 4.11719 68.1797C4.11719 69.1506 4.90408 69.9375 5.875 69.9375H7.63281V80.4844H5.875C4.90408 80.4844 4.11719 81.2713 4.11719 82.2422C4.11719 83.2131 4.90408 84 5.875 84H12.9062C13.8772 84 14.6641 83.2131 14.6641 82.2422C14.6641 81.2713 13.8772 80.4844 12.9062 80.4844Z" fill="#FCD34D" fill-opacity="0.3"/>
<path d="M59.7812 66.4219H57.4375C55.1757 66.4219 53.3359 68.2616 53.3359 70.5234V79.8984C53.3359 82.1602 55.1757 84 57.4375 84H59.7812C62.0431 84 63.8828 82.1602 63.8828 79.8984V70.5234C63.8828 68.2616 62.0431 66.4219 59.7812 66.4219ZM60.3672 79.8984C60.3672 80.2216 60.1044 80.4844 59.7812 80.4844H57.4375C57.1143 80.4844 56.8516 80.2216 56.8516 79.8984V70.5234C56.8516 70.2003 57.1143 69.9375 57.4375 69.9375H59.7812C60.1044 69.9375 60.3672 70.2003 60.3672 70.5234V79.8984Z" fill="#FCD34D" fill-opacity="0.3"/>
<path d="M45.7188 80.4844H43.9609V68.1797C43.9609 67.2088 43.174 66.4219 42.2031 66.4219H38.6875C37.7166 66.4219 36.9297 67.2088 36.9297 68.1797C36.9297 69.1506 37.7166 69.9375 38.6875 69.9375H40.4453V80.4844H38.6875C37.7166 80.4844 36.9297 81.2713 36.9297 82.2422C36.9297 83.2131 37.7166 84 38.6875 84H45.7188C46.6897 84 47.4766 83.2131 47.4766 82.2422C47.4766 81.2713 46.6897 80.4844 45.7188 80.4844Z" fill="#FCD34D" fill-opacity="0.3"/>
<path d="M26.9688 45.2109H24.625C22.3632 45.2109 20.5234 47.0507 20.5234 49.3125V58.6875C20.5234 60.9493 22.3632 62.7891 24.625 62.7891H26.9688C29.2306 62.7891 31.0703 60.9493 31.0703 58.6875V49.3125C31.0703 47.0507 29.2306 45.2109 26.9688 45.2109ZM27.5547 58.6875C27.5547 59.0107 27.2919 59.2734 26.9688 59.2734H24.625C24.3018 59.2734 24.0391 59.0107 24.0391 58.6875V49.3125C24.0391 48.9893 24.3018 48.7266 24.625 48.7266H26.9688C27.2919 48.7266 27.5547 48.9893 27.5547 49.3125V58.6875Z" fill="#FCD34D" fill-opacity="0.3"/>
<path d="M12.9062 59.2734H11.1484V46.9688C11.1484 45.9978 10.3615 45.2109 9.39062 45.2109H5.875C4.90408 45.2109 4.11719 45.9978 4.11719 46.9688C4.11719 47.9397 4.90408 48.7266 5.875 48.7266H7.63281V59.2734H5.875C4.90408 59.2734 4.11719 60.0603 4.11719 61.0312C4.11719 62.0022 4.90408 62.7891 5.875 62.7891H12.9062C13.8772 62.7891 14.6641 62.0022 14.6641 61.0312C14.6641 60.0603 13.8772 59.2734 12.9062 59.2734Z" fill="#FCD34D" fill-opacity="0.3"/>
<path d="M43.375 45.2109H41.0312C38.7694 45.2109 36.9297 47.0507 36.9297 49.3125V58.6875C36.9297 60.9493 38.7694 62.7891 41.0312 62.7891H43.375C45.6368 62.7891 47.4766 60.9493 47.4766 58.6875V49.3125C47.4766 47.0507 45.6368 45.2109 43.375 45.2109ZM43.9609 58.6875C43.9609 59.0107 43.6982 59.2734 43.375 59.2734H41.0312C40.7081 59.2734 40.4453 59.0107 40.4453 58.6875V49.3125C40.4453 48.9893 40.7081 48.7266 41.0312 48.7266H43.375C43.6982 48.7266 43.9609 48.9893 43.9609 49.3125V58.6875Z" fill="#FCD34D" fill-opacity="0.3"/>
<path d="M62.125 59.2734H60.3672V46.9688C60.3672 45.9978 59.5803 45.2109 58.6094 45.2109H55.0938C54.1228 45.2109 53.3359 45.9978 53.3359 46.9688C53.3359 47.9397 54.1228 48.7266 55.0938 48.7266H56.8516V59.2734H55.0938C54.1228 59.2734 53.3359 60.0603 53.3359 61.0312C53.3359 62.0022 54.1228 62.7891 55.0938 62.7891H62.125C63.0959 62.7891 63.8828 62.0022 63.8828 61.0312C63.8828 60.0603 63.0959 59.2734 62.125 59.2734Z" fill="#FCD34D" fill-opacity="0.3"/>
<path d="M10.5625 24H8.21875C5.95694 24 4.11719 25.8398 4.11719 28.1016V37.4766C4.11719 39.7384 5.95694 41.5781 8.21875 41.5781H10.5625C12.8243 41.5781 14.6641 39.7384 14.6641 37.4766V28.1016C14.6641 25.8398 12.8243 24 10.5625 24ZM11.1484 37.4766C11.1484 37.7997 10.8857 38.0625 10.5625 38.0625H8.21875C7.89557 38.0625 7.63281 37.7997 7.63281 37.4766V28.1016C7.63281 27.7784 7.89557 27.5156 8.21875 27.5156H10.5625C10.8857 27.5156 11.1484 27.7784 11.1484 28.1016V37.4766Z" fill="#FCD34D" fill-opacity="0.3"/>
<path d="M29.3125 38.0625H27.5547V25.7578C27.5547 24.7869 26.7678 24 25.7969 24H22.2812C21.3103 24 20.5234 24.7869 20.5234 25.7578C20.5234 26.7287 21.3103 27.5156 22.2812 27.5156H24.0391V38.0625H22.2812C21.3103 38.0625 20.5234 38.8494 20.5234 39.8203C20.5234 40.7912 21.3103 41.5781 22.2812 41.5781H29.3125C30.2834 41.5781 31.0703 40.7912 31.0703 39.8203C31.0703 38.8494 30.2834 38.0625 29.3125 38.0625Z" fill="#FCD34D" fill-opacity="0.3"/>
<path d="M59.7812 24H57.4375C55.1757 24 53.3359 25.8398 53.3359 28.1016V37.4766C53.3359 39.7384 55.1757 41.5781 57.4375 41.5781H59.7812C62.0431 41.5781 63.8828 39.7384 63.8828 37.4766V28.1016C63.8828 25.8398 62.0431 24 59.7812 24ZM60.3672 37.4766C60.3672 37.7997 60.1044 38.0625 59.7812 38.0625H57.4375C57.1143 38.0625 56.8516 37.7997 56.8516 37.4766V28.1016C56.8516 27.7784 57.1143 27.5156 57.4375 27.5156H59.7812C60.1044 27.5156 60.3672 27.7784 60.3672 28.1016V37.4766Z" fill="#FCD34D" fill-opacity="0.3"/>
<path d="M45.7188 38.0625H43.9609V25.7578C43.9609 24.7869 43.174 24 42.2031 24H38.6875C37.7166 24 36.9297 24.7869 36.9297 25.7578C36.9297 26.7287 37.7166 27.5156 38.6875 27.5156H40.4453V38.0625H38.6875C37.7166 38.0625 36.9297 38.8494 36.9297 39.8203C36.9297 40.7912 37.7166 41.5781 38.6875 41.5781H45.7188C46.6897 41.5781 47.4766 40.7912 47.4766 39.8203C47.4766 38.8494 46.6897 38.0625 45.7188 38.0625Z" fill="#FCD34D" fill-opacity="0.3"/>
</g>
<g clip-path="url(#clip1_7615_13522)">
<g filter="url(#filter0_f_7615_13522)">
<ellipse cx="34.4797" cy="54.4142" rx="6.46505" ry="46.8716" fill="#FDE047"/>
</g>
</g>
<defs>
<filter id="filter0_f_7615_13522" x="10.7745" y="-9.69752" width="47.4104" height="128.223" filterUnits="userSpaceOnUse" color-interpolation-filters="sRGB">
<feFlood flood-opacity="0" result="BackgroundImageFix"/>
<feBlend mode="normal" in="SourceGraphic" in2="BackgroundImageFix" result="shape"/>
<feGaussianBlur stdDeviation="8.62006" result="effect1_foregroundBlur_7615_13522"/>
</filter>
<clipPath id="clip0_7615_13522">
<rect width="60" height="60" fill="white" transform="translate(4 24)"/>
</clipPath>
<clipPath id="clip1_7615_13522">
<rect width="35.5578" height="108.828" fill="white"/>
</clipPath>
</defs>
</svg>
