<svg width="109" height="96" viewBox="0 0 109 96" fill="none" xmlns="http://www.w3.org/2000/svg">
<path d="M19.9146 11.4429C19.225 11.4428 18.5636 11.7168 18.076 12.2044C17.5884 12.692 17.3145 13.3533 17.3145 14.0429V25.9884C17.3145 27.4244 18.4785 28.5884 19.9145 28.5884C21.3504 28.5884 22.5145 27.4244 22.5145 25.9884V16.643L31.8599 16.6434C33.2958 16.6435 34.4599 15.4795 34.46 14.0435C34.4601 12.6076 33.2961 11.4435 31.8601 11.4434L19.9146 11.4429Z" fill="#FCD34D" fill-opacity="0.3"/>
<path d="M90.6855 14.043C90.6856 13.3534 90.4117 12.6921 89.9241 12.2044C89.4365 11.7168 88.7751 11.4429 88.0855 11.4429H76.14C74.704 11.4429 73.54 12.6069 73.54 14.0429C73.54 15.4788 74.704 16.6429 76.14 16.6429H85.4854L85.485 25.9883C85.485 27.4243 86.649 28.5884 88.0849 28.5884C89.5208 28.5885 90.685 27.4245 90.685 25.9885L90.6855 14.043Z" fill="#FCD34D" fill-opacity="0.3"/>
<path d="M89.924 83.7976C89.4364 84.2852 88.775 84.5591 88.0854 84.5591L76.1399 84.5586C74.7039 84.5585 73.5399 83.3944 73.54 81.9584C73.5401 80.5225 74.7042 79.3585 76.1401 79.3586L85.4855 79.359V70.0135C85.4855 68.5776 86.6496 67.4135 88.0855 67.4135C89.5215 67.4135 90.6855 68.5776 90.6855 70.0135V81.9591C90.6855 82.6487 90.4116 83.31 89.924 83.7976Z" fill="#FCD34D" fill-opacity="0.3"/>
<path d="M17.3145 81.959C17.3144 82.6486 17.5883 83.3099 18.0759 83.7975C18.5635 84.2851 19.2249 84.5591 19.9145 84.5591H31.86C33.296 84.5591 34.46 83.395 34.46 81.9591C34.46 80.5231 33.296 79.3591 31.86 79.3591H22.5146L22.515 70.0136C22.515 68.5777 21.351 67.4136 19.9151 67.4135C18.4792 67.4135 17.315 68.5775 17.315 70.0134L17.3145 81.959Z" fill="#FCD34D" fill-opacity="0.3"/>
<path d="M57.3376 27.1312C49.4091 27.1312 42.8197 32.4889 40.6967 39.7812C32.8821 39.9283 26.707 46.433 26.707 54.3234C26.707 59.4877 29.3656 64.0468 33.3796 66.6227C35.5815 68.0652 38.1759 68.8681 40.9674 68.8681H69.318C72.0784 68.8681 74.6532 67.9049 76.6917 66.294L76.7173 66.2733C79.4926 64.0225 81.292 60.5765 81.292 56.6655C81.292 52.2825 79.0262 48.418 75.5652 46.2705C74.9509 45.8893 74.6616 45.2995 74.6616 44.8613C74.6616 35.1053 66.9768 27.1312 57.3376 27.1312Z" fill="#FCD34D" fill-opacity="0.3"/>
<g clip-path="url(#clip0_11027_3629)">
<g filter="url(#filter0_f_11027_3629)">
<ellipse cx="54.5854" cy="54.1153" rx="6.46505" ry="46.8716" transform="rotate(90 54.5854 54.1153)" fill="#FDE047"/>
</g>
</g>
<defs>
<filter id="filter0_f_11027_3629" x="-9.52625" y="30.4101" width="128.223" height="47.4103" filterUnits="userSpaceOnUse" color-interpolation-filters="sRGB">
<feFlood flood-opacity="0" result="BackgroundImageFix"/>
<feBlend mode="normal" in="SourceGraphic" in2="BackgroundImageFix" result="shape"/>
<feGaussianBlur stdDeviation="8.62006" result="effect1_foregroundBlur_11027_3629"/>
</filter>
<clipPath id="clip0_11027_3629">
<rect width="35.5578" height="108.828" fill="white" transform="translate(109 19.6353) rotate(90)"/>
</clipPath>
</defs>
</svg>
