<svg width="60" height="109" viewBox="0 0 60 109" fill="none" xmlns="http://www.w3.org/2000/svg">
<g clip-path="url(#clip0_7615_13484)">
<path d="M54.7266 41.6953C37.2154 41.6953 22.2189 41.6953 5.27344 41.6953C2.36555 41.6953 0 44.0609 0 46.9688V61.0312C0 63.9391 2.36555 66.3047 5.27344 66.3047H6.62355H53.3764H54.7266C57.6345 66.3047 60 63.9391 60 61.0312V46.9688C60 44.0609 57.6345 41.6953 54.7266 41.6953ZM56.299 51.2706L52.7834 58.3018C52.1355 59.5938 50.2863 59.5938 49.6385 58.3018L47.6953 54.4154L45.7521 58.3018C45.0901 59.6222 42.6173 59.5478 42.3349 57.7573L39.2392 51.5641C39.0366 51.3155 38.9211 51.003 38.8836 50.6695C38.862 50.8727 38.8175 51.077 38.7207 51.2706L35.2051 58.3018C34.5573 59.5938 32.7081 59.5938 32.0603 58.3018L30.1172 54.4154L27.9396 58.3018C27.3422 59.4932 25.3922 59.4932 24.7948 58.3018C24.5254 57.763 21.1874 51.2348 21.1225 50.6923C21.0783 51.071 20.9353 51.4163 20.704 51.6791C20.3977 52.2916 17.5368 58.2239 17.0575 58.6683C16.0696 59.7241 14.7384 59.2804 14.2478 58.3018L12.3047 54.4154L10.3615 58.3018C9.71367 59.5938 7.86445 59.5938 7.21664 58.3018L3.70102 51.2706C2.66227 49.1932 5.80383 47.6224 6.84586 49.6982L8.78906 53.5846L10.7323 49.6982C11.3657 48.4315 13.2455 48.4436 13.8771 49.6982L15.8203 53.5846L17.7635 49.6982C18.545 48.1351 21.0386 48.5706 21.1182 50.4304C21.1812 48.5653 23.6218 48.1002 24.424 49.6982L26.3672 53.5846L28.3104 49.6982C28.9078 48.5068 31.0922 48.5068 31.6896 49.6982L33.6328 53.5846L35.576 49.6982C36.3749 48.1066 38.8003 48.5575 38.8797 50.4142C38.9547 48.4745 41.4629 48.1511 42.2365 49.6982L44.1797 53.5846L46.1229 49.6982C46.7203 48.5068 48.6703 48.5068 49.2677 49.6982L51.2109 53.5846L53.1541 49.6982C54.1962 47.6224 57.3377 49.1932 56.299 51.2706Z" fill="#FCD34D" fill-opacity="0.3"/>
<path d="M21.1045 38.1796H28.1261V31.4009C25.463 32.1468 22.9955 34.5829 21.1045 38.1796Z" fill="#FCD34D" fill-opacity="0.3"/>
<path d="M31.875 27.7388V27.8379C36.3077 28.6252 40.2036 32.3676 42.7916 38.1796H51.096C46.5275 32.1347 39.5169 28.2651 31.875 27.7388Z" fill="#FCD34D" fill-opacity="0.3"/>
<path d="M8.90332 38.1797H17.2077C19.7957 32.3677 23.6916 28.6253 28.1243 27.8379V27.7388C20.4824 28.2652 13.4718 32.1348 8.90332 38.1797Z" fill="#FCD34D" fill-opacity="0.3"/>
<path d="M31.875 31.4009V38.1796H38.8966C37.0056 34.5829 34.5381 32.1468 31.875 31.4009Z" fill="#FCD34D" fill-opacity="0.3"/>
<path d="M21.1045 69.8203C22.9955 73.417 25.463 75.8531 28.1261 76.599V69.8203H21.1045Z" fill="#FCD34D" fill-opacity="0.3"/>
<path d="M31.875 69.8203V76.599C34.5381 75.8531 37.0056 73.417 38.8966 69.8203H31.875Z" fill="#FCD34D" fill-opacity="0.3"/>
<path d="M42.7916 69.8204C40.2036 75.6323 36.3077 79.3747 31.875 80.1621V80.2613C39.5169 79.7348 46.5275 75.8652 51.096 69.8204H42.7916Z" fill="#FCD34D" fill-opacity="0.3"/>
<path d="M17.2077 69.8203H8.90332C13.4716 75.8652 20.4823 79.7348 28.1243 80.2611V80.162C23.6916 79.3747 19.7957 75.6323 17.2077 69.8203Z" fill="#FCD34D" fill-opacity="0.3"/>
</g>
<g clip-path="url(#clip1_7615_13484)">
<g filter="url(#filter0_f_7615_13484)">
<ellipse cx="46.4797" cy="54.4142" rx="6.46505" ry="46.8716" fill="#FDE047"/>
</g>
</g>
<defs>
<filter id="filter0_f_7615_13484" x="22.7745" y="-9.69752" width="47.4104" height="128.223" filterUnits="userSpaceOnUse" color-interpolation-filters="sRGB">
<feFlood flood-opacity="0" result="BackgroundImageFix"/>
<feBlend mode="normal" in="SourceGraphic" in2="BackgroundImageFix" result="shape"/>
<feGaussianBlur stdDeviation="8.62006" result="effect1_foregroundBlur_7615_13484"/>
</filter>
<clipPath id="clip0_7615_13484">
<rect width="60" height="60" fill="white" transform="translate(0 24)"/>
</clipPath>
<clipPath id="clip1_7615_13484">
<rect width="35.5578" height="108.828" fill="white" transform="translate(12)"/>
</clipPath>
</defs>
</svg>
