<svg width="109" height="65" viewBox="0 0 109 65" fill="none" xmlns="http://www.w3.org/2000/svg">
<g clip-path="url(#clip0_7615_13469)">
<path d="M58.85 24.1406H56.3711C56.3738 25.0986 56.3811 28.3144 56.3857 29.2323C57.274 29.2277 58.2812 29.2233 58.8501 29.2233C60.2733 29.2233 61.4757 28.0595 61.4757 26.682C61.4757 25.3044 60.2732 24.1406 58.85 24.1406Z" fill="#FCD34D" fill-opacity="0.3"/>
<path d="M40.8662 32.1188H44.9651L42.9251 26.7133L40.8662 32.1188Z" fill="#FCD34D" fill-opacity="0.3"/>
<path d="M83.1207 35.1543L79.1992 32.8902C79.3236 31.8744 79.3846 30.9205 79.3846 30C79.3846 29.0795 79.3236 28.1256 79.1992 27.1098L83.1207 24.8457C83.9614 24.3604 84.2496 23.2853 83.7641 22.4446L75.425 8.00098C74.9397 7.16028 73.8646 6.87211 73.0239 7.35762L69.1186 9.61219C67.5778 8.47254 65.8959 7.50774 64.0964 6.7309V2.20325C64.0964 1.23247 63.3094 0.445435 62.3386 0.445435H45.6612C44.6904 0.445435 43.9034 1.23247 43.9034 2.20325V6.73079C42.104 7.5075 40.4221 8.47254 38.8812 9.61207L34.976 7.3575C34.1353 6.87211 33.0602 7.16016 32.5749 8.00086L24.2358 22.4446C23.7504 23.2853 24.0384 24.3604 24.8791 24.8457L28.8005 27.1098C28.676 28.1256 28.6151 29.0795 28.6151 30C28.6151 30.9205 28.676 31.8744 28.8005 32.8902L24.8791 35.1543C24.0384 35.6397 23.7504 36.7147 24.2358 37.5554L32.5749 51.999C33.0602 52.8397 34.1353 53.1279 34.976 52.6424L38.8812 50.3878C40.4221 51.5275 42.104 52.4924 43.9034 53.2691V57.7966C43.9034 58.7674 44.6904 59.5545 45.6612 59.5545H62.3387C63.3095 59.5545 64.0965 58.7674 64.0965 57.7966V53.2691C65.8961 52.4923 67.5779 51.5274 69.1187 50.3878L73.024 52.6425C73.8647 53.1279 74.9398 52.8399 75.4252 51.9991L83.7642 37.5556C84.2496 36.7147 83.9616 35.6397 83.1207 35.1543ZM49.5391 39.2618C49.3348 39.3389 49.125 39.3755 48.9188 39.3755C48.2084 39.3755 47.5395 38.9418 47.2739 38.2378L46.2913 35.6343H39.5268L38.5332 38.2429C38.1877 39.15 37.1722 39.6054 36.265 39.2599C35.3577 38.9145 34.9024 37.8988 35.2479 36.9916C35.2479 36.9916 40.9786 21.9454 40.984 21.9322C41.3084 21.1391 42.0715 20.6261 42.9284 20.6251H42.9307C43.7866 20.6251 44.5499 21.1364 44.8756 21.9282C44.8821 21.9442 50.563 36.9967 50.563 36.9967C50.9059 37.9049 50.4475 38.919 49.5391 39.2618ZM58.8511 32.7389C58.2803 32.7389 57.2596 32.7435 56.367 32.7481V37.6172C56.367 38.588 55.5799 39.375 54.6091 39.375C53.6384 39.375 52.8513 38.588 52.8513 37.6172C52.8513 37.6172 52.8513 22.3886 52.8513 22.3884C52.8498 21.9213 53.0344 21.4727 53.3641 21.1418C53.6939 20.811 54.1419 20.625 54.6091 20.625H58.8511C62.2373 20.625 64.9923 23.3421 64.9923 26.682C64.9923 30.0218 62.2373 32.7389 58.8511 32.7389ZM70.7578 37.6172C70.7578 38.588 69.9708 39.375 69 39.375C68.0292 39.375 67.2422 38.588 67.2422 37.6172V22.3828C67.2422 21.412 68.0292 20.625 69 20.625C69.9708 20.625 70.7578 21.412 70.7578 22.3828V37.6172Z" fill="#FCD34D" fill-opacity="0.3"/>
</g>
<g clip-path="url(#clip1_7615_13469)">
<g filter="url(#filter0_f_7615_13469)">
<ellipse cx="54.4146" cy="30.5199" rx="6.46505" ry="46.8716" transform="rotate(-90 54.4146 30.5199)" fill="#FDE047"/>
</g>
</g>
<defs>
<filter id="filter0_f_7615_13469" x="-9.69715" y="6.81481" width="128.223" height="47.4103" filterUnits="userSpaceOnUse" color-interpolation-filters="sRGB">
<feFlood flood-opacity="0" result="BackgroundImageFix"/>
<feBlend mode="normal" in="SourceGraphic" in2="BackgroundImageFix" result="shape"/>
<feGaussianBlur stdDeviation="8.62006" result="effect1_foregroundBlur_7615_13469"/>
</filter>
<clipPath id="clip0_7615_13469">
<rect width="60" height="60" fill="white" transform="translate(24)"/>
</clipPath>
<clipPath id="clip1_7615_13469">
<rect width="35.5578" height="108.828" fill="white" transform="translate(0 65) rotate(-90)"/>
</clipPath>
</defs>
</svg>
