<svg width="64" height="109" viewBox="0 0 64 109" fill="none" xmlns="http://www.w3.org/2000/svg">
<path fill-rule="evenodd" clip-rule="evenodd" d="M35.7216 26.5317C33.3784 25.3781 30.6242 25.3781 28.281 26.5317L4.94234 38.0224C1.90985 39.5154 1.90983 43.8175 4.94234 45.3106L28.281 56.8012C30.6242 57.955 33.3784 57.955 35.7216 56.8014L59.0602 45.3106C62.0928 43.8176 62.0928 39.5155 59.0602 38.0224L35.7216 26.5317ZM5.07624 51.2897C5.4476 51.1068 5.8828 51.1068 6.25413 51.2897L28.281 62.1345C30.6242 63.2881 33.3784 63.2881 35.7216 62.1345L57.7485 51.2897C58.1197 51.1068 58.5549 51.1068 58.9264 51.2897L59.0602 51.3556C62.0928 52.8486 62.0928 57.1508 59.0602 58.6438L35.7216 70.1345C33.3784 71.2881 30.6242 71.2881 28.281 70.1345L4.94234 58.6438C1.90983 57.1508 1.90985 52.8486 4.94234 51.3556L5.07624 51.2897ZM6.25413 64.6233C5.8828 64.4404 5.4476 64.4404 5.07624 64.6233L4.94234 64.6892C1.90985 66.1822 1.90983 70.4844 4.94234 71.9774L28.281 83.4681C30.6242 84.6217 33.3784 84.6217 35.7216 83.4681L59.0602 71.9774C62.0928 70.4844 62.0928 66.1822 59.0602 64.6892L58.9264 64.6233C58.5549 64.4404 58.1197 64.4404 57.7485 64.6233L35.7216 75.4681C33.3784 76.6217 30.6242 76.6217 28.281 75.4681L6.25413 64.6233Z" fill="#FCD34D" fill-opacity="0.3"/>
<g clip-path="url(#clip0_11027_3628)">
<g filter="url(#filter0_f_11027_3628)">
<ellipse cx="6.46505" cy="46.8716" rx="6.46505" ry="46.8716" transform="matrix(-1 0 0 1 35.543 7.5426)" fill="#FDE047"/>
</g>
</g>
<defs>
<filter id="filter0_f_11027_3628" x="5.37267" y="-9.69752" width="47.4104" height="128.223" filterUnits="userSpaceOnUse" color-interpolation-filters="sRGB">
<feFlood flood-opacity="0" result="BackgroundImageFix"/>
<feBlend mode="normal" in="SourceGraphic" in2="BackgroundImageFix" result="shape"/>
<feGaussianBlur stdDeviation="8.62006" result="effect1_foregroundBlur_11027_3628"/>
</filter>
<clipPath id="clip0_11027_3628">
<rect width="35.5578" height="108.828" fill="white" transform="matrix(-1 0 0 1 63.5576 0)"/>
</clipPath>
</defs>
</svg>
